<?xml version="1.0" encoding="UTF-8" standalone="no"?>
<svg
   xmlns:dc="http://purl.org/dc/elements/1.1/"
   xmlns:cc="http://creativecommons.org/ns#"
   xmlns:rdf="http://www.w3.org/1999/02/22-rdf-syntax-ns#"
   xmlns:svg="http://www.w3.org/2000/svg"
   xmlns="http://www.w3.org/2000/svg"
   id="svg8"
   version="1.1"
   viewBox="0 0 361.42083 190.50001"
   height="720"
   width="1366">
  <defs
     id="defs2" />
  <metadata
     id="metadata5">
    <rdf:RDF>
      <cc:Work
         rdf:about="">
        <dc:format>image/svg+xml</dc:format>
        <dc:type
           rdf:resource="http://purl.org/dc/dcmitype/StillImage" />
        <dc:title></dc:title>
      </cc:Work>
    </rdf:RDF>
  </metadata>
  <g
     transform="translate(0,-106.49998)"
     id="layer1">
    <rect
       y="106.49998"
       x="-2.0345053e-06"
       height="190.5"
       width="361.42084"
       id="rect10"
       style="opacity:1;fill:#f2f2f2;fill-opacity:1;stroke:none;stroke-width:1.81946504;stroke-linejoin:round;stroke-miterlimit:4;stroke-dasharray:none;stroke-opacity:1;paint-order:markers fill stroke" />
    <g
       transform="translate(29.451611,-0.9289026)"
       id="g1145">
      <rect
         style="opacity:1;fill:#f9f9f9;fill-opacity:1;stroke:none;stroke-width:1.09185708;stroke-linejoin:round;stroke-miterlimit:4;stroke-dasharray:none;stroke-opacity:1;paint-order:markers fill stroke"
         id="rect817"
         width="79.375"
         height="113.71711"
         x="25.324402"
         y="145.82033"
         ry="3.3185122" />
      <g
         id="g1812">
        <path
           id="path865"
           d="m 25.925144,180.42098 c 0,0 -3.207235,3.60871 3.474504,10.40976 6.681737,6.80104 22.71791,-1.24918 22.71791,-1.24918 0,0 13.764379,-4.1639 19.510674,-0.83278 5.746295,3.33113 19.777945,17.4884 26.192413,14.01848 6.414465,-3.46992 6.949005,-7.07864 6.949005,-7.07864 l -29.26601,-17.4884 c 0,0 -27.662394,1.66557 -31.671437,2.08195 -4.009044,0.4164 -17.907059,0.13881 -17.907059,0.13881 z"
           style="fill:#f4813f;fill-opacity:0.53846154;stroke:none;stroke-width:0.26964509px;stroke-linecap:butt;stroke-linejoin:miter;stroke-opacity:1" />
        <path
           id="path819"
           d="m 25.323788,181.25376 c 0,0 3.808591,14.15727 16.904796,11.38134 13.096208,-2.77594 23.51972,-7.21744 32.606882,-3.88632 9.087165,3.33113 20.847025,12.35293 26.326054,10.82615 4.56696,-1.27262 3.60813,-3.88631 3.60813,-3.88631 l -0.0703,-49.86829 H 25.324352 Z"
           style="fill:#f4813f;fill-opacity:1;stroke:none;stroke-width:0.26964509px;stroke-linecap:butt;stroke-linejoin:miter;stroke-opacity:1" />
      </g>
      <flowRoot
         xml:space="preserve"
         id="flowRoot867"
         style="font-style:normal;font-variant:normal;font-weight:normal;font-stretch:normal;font-size:13.33333302px;line-height:1.25;font-family:kenyan;-inkscape-font-specification:kenyan;letter-spacing:0px;word-spacing:0px;fill:#000000;fill-opacity:1;stroke:none"
         transform="matrix(0.26458333,0,0,0.26458333,-25.469909,108.05318)"><flowRegion
           id="flowRegion869"><rect
             id="rect871"
             width="298.82166"
             height="66.927498"
             x="192.85715"
             y="160" /></flowRegion><flowPara
           id="flowPara873"
           style="font-style:normal;font-variant:normal;font-weight:bold;font-stretch:normal;font-size:24px;font-family:Provicali;-inkscape-font-specification:'Provicali Bold';text-align:center;text-anchor:middle;fill:#f9f9f9;fill-opacity:1">LG TECH</flowPara></flowRoot>      <g
         id="g923"
         transform="matrix(0.88731553,0,0,0.88731553,-11.470733,19.353288)">
        <path
           style="fill:#ffffff;fill-opacity:1;stroke-width:0.03946378"
           d="m 85.68998,184.22193 c -1.120849,-0.0676 -2.636025,-0.34452 -3.492545,-0.63823 -0.983518,-0.33727 -2.257835,-0.94022 -2.950597,-1.39609 -0.639281,-0.42067 -1.34114,-0.974 -1.918054,-1.51214 -0.644427,-0.60111 -0.719722,-0.68122 -1.167445,-1.24199 -1.339468,-1.67766 -2.259945,-3.63075 -2.683416,-5.69373 -0.186526,-0.90869 -0.21909,-1.29666 -0.217707,-2.59366 0.0014,-1.17081 0.0077,-1.28213 0.111546,-1.914 0.331884,-2.02017 1.03921,-3.81268 2.149003,-5.446 0.693815,-1.02112 1.576356,-1.95319 2.690829,-2.84188 3.045527,-2.42849 7.123574,-3.34928 10.916601,-2.46486 0.370117,0.0863 1.375265,0.37072 1.524607,0.4314 0.0487,0.0198 0.230614,0.0891 0.404253,0.15413 0.806532,0.30183 1.717671,0.76816 2.427022,1.24217 2.486291,1.66139 4.290239,4.04701 5.231837,6.91881 0.226757,0.6916 0.409752,1.546 0.535353,2.49953 0.07778,0.59054 0.06715,2.39704 -0.01766,2.99925 -0.329594,2.34056 -1.076848,4.26269 -2.350622,6.04645 -0.453656,0.63527 -0.756068,0.99392 -1.319235,1.56453 -0.647345,0.65591 -1.538768,1.39703 -2.201067,1.82997 -0.854359,0.55848 -2.257939,1.19836 -3.351433,1.5279 -1.376313,0.41478 -2.971737,0.60987 -4.321284,0.52844 z m 1.722361,-1.98766 c 1.242711,-0.12346 2.334387,-0.43139 3.644714,-1.02808 0.255473,-0.11634 1.068095,-0.5634 1.239544,-0.68194 2.270652,-1.56987 3.826334,-3.63091 4.561649,-6.04347 0.33219,-1.08991 0.456214,-1.86279 0.482254,-3.00526 0.02852,-1.25035 -0.05859,-2.0449 -0.345022,-3.14807 -0.227257,-0.87525 -0.707552,-1.93563 -1.377758,-3.04174 -0.529589,-0.87403 -0.796333,-1.21268 -1.539508,-1.95453 -1.741909,-1.73878 -3.626658,-2.67256 -6.336114,-3.13915 -0.744818,-0.12827 -2.238023,-0.11532 -3.137375,0.0272 -1.927925,0.30551 -3.687215,1.077 -5.209216,2.28435 -0.470268,0.37305 -1.494083,1.38185 -1.822256,1.79553 -1.244,1.56816 -2.014442,3.40901 -2.328831,5.56439 -0.06897,0.47281 -0.0684,2.16618 9.45e-4,2.66381 0.178445,1.28154 0.496671,2.32531 1.082111,3.54922 0.820392,1.71512 2.204189,3.27546 3.936288,4.43849 0.729796,0.49003 2.175637,1.13828 3.04014,1.36307 0.517849,0.13465 1.212919,0.26398 1.813906,0.33751 0.513741,0.0629 1.748597,0.0729 2.294581,0.0186 z m -6.809531,-4.2945 c -0.01138,-0.0185 -0.0574,-0.27151 -0.102233,-0.56235 -0.04485,-0.29085 -0.12434,-0.7952 -0.176703,-1.12077 -0.05236,-0.32558 -0.167766,-1.05369 -0.25645,-1.61801 -0.08868,-0.56434 -0.188765,-1.19478 -0.2224,-1.40097 -0.03361,-0.2062 -0.08644,-0.56138 -0.117339,-0.78928 -0.03092,-0.2279 -0.07403,-0.50316 -0.09583,-0.61169 -0.02181,-0.10853 -0.06529,-0.37955 -0.09664,-0.60227 -0.03134,-0.22272 -0.07495,-0.50687 -0.0969,-0.63143 -0.02195,-0.12455 -0.09616,-0.58271 -0.164907,-1.01813 l -0.124991,-0.79166 0.08245,-0.1864 c 0.138446,-0.31298 0.04617,-0.30211 2.566503,-0.30211 h 2.207087 l 0.02413,0.60182 c 0.01327,0.331 0.04253,1.61407 0.06496,2.85126 0.02242,1.23718 0.0576,2.96866 0.07812,3.84771 0.02053,0.87906 0.03753,1.77144 0.03786,1.98306 l 4.71e-4,0.38477 h -1.79327 c -0.986303,0 -1.802603,-0.0151 -1.814009,-0.0336 z m 2.143536,-1.75774 c 0.03045,-0.0367 0.04188,-0.21671 0.03441,-0.54262 l -0.01109,-0.48774 -0.490184,-0.0112 c -0.365642,-0.009 -0.498343,0.002 -0.522291,0.0394 -0.03842,0.0605 -0.04475,0.99289 -0.007,1.03062 0.01444,0.0144 0.234278,0.0263 0.488462,0.0263 0.346504,0 0.473553,-0.0137 0.507704,-0.0549 z m -0.0836,-2.05643 c 0.01737,-0.65612 0.0535,-0.61169 -0.497634,-0.61169 -0.308988,0 -0.480805,0.0159 -0.512279,0.0473 -0.05985,0.0599 -0.06466,0.83316 -0.0058,0.94304 0.03829,0.0716 0.07859,0.0766 0.522895,0.0665 l 0.481399,-0.0111 z m -1.040351,-1.18673 c 0.0786,-0.0786 0.09088,-0.87992 0.01463,-0.95615 -0.06531,-0.0653 -0.944964,-0.0653 -1.010271,0 -0.0497,0.0497 -0.06898,0.83696 -0.02341,0.95574 0.03517,0.0917 0.927374,0.0921 1.019014,4.5e-4 z m 1.223375,-1.65748 c 0.04838,-0.0484 0.06202,-0.15175 0.06202,-0.47034 0,-0.22458 -0.01081,-0.43641 -0.02394,-0.47074 -0.03569,-0.093 -0.981917,-0.093 -1.01761,0 -0.04018,0.10468 -0.02667,0.84537 0.0169,0.92676 0.03654,0.0683 0.08611,0.0764 0.470749,0.0764 0.33819,0 0.443123,-0.0132 0.491908,-0.062 z m -1.599049,-0.54536 c 0.03045,-0.0367 0.04188,-0.21672 0.03442,-0.54262 l -0.01109,-0.48776 -0.487749,-0.0111 c -0.325903,-0.008 -0.505961,0.003 -0.542628,0.0344 -0.07247,0.0602 -0.07902,0.94309 -0.0075,1.01458 0.0715,0.0715 0.954438,0.065 1.014585,-0.008 z m 7.950836,6.93144 c 0.01425,-0.12479 0.05164,-0.36898 0.08312,-0.54262 0.197332,-1.08875 0.301841,-1.87972 0.255714,-1.93531 -0.04008,-0.0483 -0.248813,-0.0576 -1.287328,-0.0576 -1.101084,0 -1.24223,0.007 -1.263804,0.0633 -0.01336,0.0348 0.04254,0.57201 0.124189,1.19378 0.08166,0.62176 0.157613,1.20595 0.168782,1.2982 l 0.0203,0.16772 h -0.65752 c -0.492252,0 -0.661038,-0.0124 -0.671505,-0.0493 -0.01648,-0.0582 -0.08341,-0.82415 -0.16119,-1.84493 -0.03059,-0.40155 -0.08371,-1.0231 -0.118033,-1.38123 -0.03432,-0.35814 -0.141274,-1.57461 -0.237662,-2.70328 -0.166548,-1.9501 -0.460893,-5.33682 -0.589934,-6.78777 -0.06973,-0.78401 -0.0759,-1.14086 -0.02148,-1.24254 0.05834,-0.109 0.283223,-0.17118 0.451258,-0.12479 0.112232,0.0309 1.969105,0.68415 3.219176,1.13236 0.141085,0.0506 0.380829,0.13612 0.532761,0.19011 1.698742,0.60352 2.401928,0.85933 2.494337,0.9074 0.243629,0.12674 0.405885,0.40793 0.40674,0.70488 4.43e-4,0.15028 -0.123769,0.99515 -0.35552,2.41842 -0.04239,0.26047 -0.122028,0.76659 -0.176925,1.12473 -0.0549,0.35813 -0.126262,0.8021 -0.158584,0.98659 -0.03234,0.18449 -0.08612,0.54678 -0.119549,0.80507 -0.03342,0.25831 -0.06899,0.48291 -0.07902,0.49913 -0.01001,0.0162 -0.03692,0.16894 -0.05976,0.33938 -0.02285,0.17043 -0.103512,0.70056 -0.179256,1.17808 -0.525544,3.31303 -0.608133,3.81556 -0.633928,3.8573 -0.01015,0.0164 -0.241849,0.0299 -0.51487,0.0299 h -0.496401 z m -0.817278,-3.29522 c 0.0559,-0.0885 0.06641,-0.89261 0.01251,-0.95754 -0.06292,-0.0758 -0.90403,-0.0855 -0.978254,-0.0113 -0.05073,0.0507 -0.06967,0.94323 -0.02106,0.99185 0.05079,0.0508 0.953461,0.0297 0.98678,-0.023 z m 1.188235,-2.52164 c 0.01431,-0.59339 0.02053,-0.58634 -0.517065,-0.58552 -0.220926,3e-4 -0.428324,0.0174 -0.460878,0.038 -0.04665,0.0295 -0.0592,0.12762 -0.0592,0.4631 0,0.23413 0.01298,0.45733 0.02884,0.49598 0.02583,0.0629 0.07964,0.0691 0.513029,0.0592 l 0.484199,-0.0111 z m -2.304203,-0.9248 c 0.01317,-0.0343 0.02394,-0.25505 0.02394,-0.49048 0,-0.5556 0.0033,-0.55227 -0.525714,-0.55147 -0.220926,2.9e-4 -0.428323,0.0174 -0.460883,0.038 -0.04728,0.0299 -0.05919,0.13326 -0.05919,0.51381 0,0.38052 0.0119,0.48396 0.05919,0.5139 0.03257,0.0206 0.257084,0.0377 0.498942,0.0381 0.364957,4.4e-4 0.443818,-0.01 0.463702,-0.0618 z m 1.999794,-1.20336 c 0.05491,-0.0868 0.04593,-0.9193 -0.01053,-0.97576 -0.03125,-0.0313 -0.198762,-0.0473 -0.491908,-0.0473 -0.399125,0 -0.448726,0.008 -0.485407,0.0763 -0.04627,0.0864 -0.05513,0.86662 -0.01067,0.93529 0.04419,0.0682 0.152018,0.0822 0.57488,0.0747 0.287093,-0.005 0.397285,-0.0216 0.423631,-0.0632 z m 1.804402,-2.28596 c 0.01714,-0.67884 0.05451,-0.63142 -0.497611,-0.63142 -0.308983,0 -0.4808,0.0159 -0.512273,0.0473 -0.06623,0.0662 -0.06523,0.94505 0.0014,1.01142 0.03432,0.0343 0.187466,0.0453 0.522895,0.0375 l 0.474404,-0.011 z m -1.829606,-0.10148 c 0.08479,-0.0848 0.09074,-0.89108 0.007,-0.9605 -0.03654,-0.0303 -0.211613,-0.0418 -0.522895,-0.0344 l -0.467969,0.0112 -0.01109,0.45966 c -0.01435,0.59419 -0.02153,0.58613 0.524108,0.58613 0.318958,0 0.422357,-0.0136 0.47075,-0.062 z m -2.01306,-0.47497 c 0.052,-0.0199 0.06242,-0.10103 0.06242,-0.4854 0,-0.30629 -0.01591,-0.47737 -0.04736,-0.5088 -0.05745,-0.0575 -0.850492,-0.0649 -0.939238,-0.009 -0.04707,0.0297 -0.05919,0.13111 -0.05919,0.49414 0,0.36302 0.01213,0.46439 0.05919,0.49413 0.06495,0.0411 0.824019,0.0531 0.924174,0.0147 z m 3.412076,11.01643 c -0.03011,-0.0301 0.12188,-1.01146 0.474045,-3.06025 0.04291,-0.24961 0.241703,-1.44832 0.441773,-2.66381 0.200071,-1.21548 0.375107,-2.22311 0.388967,-2.23919 0.01387,-0.0161 0.08664,-0.0112 0.161733,0.0109 0.07509,0.0221 0.722428,0.20071 1.438524,0.39695 0.716097,0.19624 1.357957,0.39139 1.426362,0.43366 0.147897,0.0914 0.251163,0.29045 0.251163,0.48411 0,0.077 -0.08168,0.37624 -0.181518,0.66492 -0.09983,0.28869 -0.276667,0.80902 -0.392964,1.1563 -0.216357,0.64607 -0.80538,2.36853 -1.331372,3.89328 -0.162134,0.47001 -0.30682,0.87402 -0.321517,0.8978 -0.02615,0.0423 -2.313644,0.0668 -2.355196,0.0253 z m 2.589649,-2.68534 v -0.51303 l -0.490186,-0.0112 c -0.365641,-0.009 -0.498342,0.002 -0.52229,0.0394 -0.03909,0.0616 -0.04438,0.95378 -0.0059,0.99228 0.0151,0.0151 0.250389,0.0225 0.522894,0.0164 l 0.495463,-0.011 z m 0.492743,-1.30165 c 0.07375,-0.0889 0.03989,-0.95798 -0.03923,-1.00802 -0.03238,-0.0205 -0.239621,-0.0375 -0.460548,-0.0378 -0.528929,-8.6e-4 -0.525714,-0.004 -0.525714,0.55189 0,0.55916 -0.0066,0.55249 0.550479,0.55249 0.328767,0 0.437577,-0.0134 0.475026,-0.0585 z m -0.39442,-1.95308 c 0.07916,-0.05 0.112996,-0.91916 0.03923,-1.00803 -0.03772,-0.0454 -0.148713,-0.0585 -0.49619,-0.0585 -0.543128,0 -0.529315,-0.0148 -0.529315,0.56682 0,0.53977 -0.0014,0.53836 0.525713,0.53757 0.220927,-3e-4 0.428174,-0.0174 0.460548,-0.0378 z m -13.456818,5.77287 c -0.141084,-0.0533 -0.358626,-0.13274 -0.483429,-0.17656 -0.124803,-0.0438 -0.226917,-0.0848 -0.226917,-0.091 0,-0.006 -0.168461,-0.71051 -0.374362,-1.56506 -0.205896,-0.85455 -0.420421,-1.74906 -0.476716,-1.98782 -0.343738,-1.45777 -0.393277,-1.66618 -0.568186,-2.39035 -0.190653,-0.78933 -0.141472,-1.31159 0.163267,-1.73379 0.668932,-0.92679 0.759038,-1.02033 0.907826,-0.94244 0.102733,0.0538 0.06369,-0.19387 1.019599,6.46754 0.107454,0.74883 0.212604,1.45918 0.233659,1.57856 0.08155,0.46228 0.12477,0.88007 0.09398,0.90831 -0.0177,0.0162 -0.147637,-0.0141 -0.288722,-0.0674 z m 5.248683,-0.065 c -0.227905,-0.0903 -0.436567,-0.17859 -0.463697,-0.19614 -0.03749,-0.0242 -0.04962,-0.29492 -0.05054,-1.12472 -4.72e-4,-0.60103 -0.01728,-1.61667 -0.03692,-2.25697 -0.01964,-0.6403 -0.05704,-2.25635 -0.08312,-3.59121 -0.02852,-1.45822 -0.06294,-2.44671 -0.08631,-2.47635 -0.0296,-0.0376 -0.328678,-0.0493 -1.252601,-0.0493 -0.924263,0 -1.222833,-0.0118 -1.251955,-0.0493 -0.04145,-0.0534 -0.24767,-1.35408 -0.24767,-1.562 0,-0.17944 0.130264,-0.52828 0.261553,-0.70041 0.106146,-0.13916 0.49188,-0.44455 1.528474,-1.2101 0.398498,-0.2943 0.490652,-0.34562 0.620643,-0.34562 0.116093,0 0.167015,0.0219 0.212599,0.0915 0.06837,0.10436 0.137403,0.75269 0.454529,4.26927 0.04112,0.45581 0.102738,1.13951 0.136968,1.51936 0.03423,0.37983 0.08822,0.93035 0.119974,1.22337 0.03177,0.29302 0.07626,0.80802 0.09891,1.14445 0.02266,0.33643 0.05773,0.72712 0.07797,0.8682 0.02025,0.14108 0.05575,0.49626 0.07892,0.78928 0.04046,0.51195 0.112047,1.28708 0.275154,2.97951 0.04183,0.4341 0.06379,0.80102 0.04878,0.81537 -0.01501,0.0144 -0.213751,-0.0478 -0.441655,-0.13812 z"
           id="path927" />
      </g>
      <flowRoot
         xml:space="preserve"
         id="flowRoot939"
         style="font-style:normal;font-variant:normal;font-weight:normal;font-stretch:normal;font-size:13.33333302px;line-height:1.25;font-family:'Source Code Pro';-inkscape-font-specification:'Source Code Pro';letter-spacing:0px;word-spacing:0px;fill:#000000;fill-opacity:1;stroke:none"><flowRegion
           id="flowRegion941"
           style="font-style:normal;font-variant:normal;font-weight:normal;font-stretch:normal;font-family:'Source Code Pro';-inkscape-font-specification:'Source Code Pro'"><rect
             id="rect943"
             width="300.01532"
             height="61.619305"
             x="93.944183"
             y="366.44659"
             style="font-style:normal;font-variant:normal;font-weight:normal;font-stretch:normal;font-family:'Source Code Pro';-inkscape-font-specification:'Source Code Pro'" /></flowRegion><flowPara
           id="flowPara945"></flowPara></flowRoot>      <flowRoot
         xml:space="preserve"
         id="flowRoot947"
         style="font-style:normal;font-variant:normal;font-weight:normal;font-stretch:normal;font-size:13.33333302px;line-height:1.25;font-family:kenyan;-inkscape-font-specification:kenyan;letter-spacing:0px;word-spacing:0px;fill:#494949;fill-opacity:1;stroke:none"
         transform="matrix(0.26458333,0,0,0.26458333,22.341639,106.49995)"><flowRegion
           id="flowRegion949"
           style="fill:#494949;fill-opacity:1"><rect
             id="rect951"
             width="306.07623"
             height="62.629459"
             x="92.934036"
             y="369.47708"
             style="fill:#494949;fill-opacity:1" /></flowRegion><flowPara
           id="flowPara953"
           style="font-style:normal;font-variant:normal;font-weight:bold;font-stretch:normal;font-size:16px;font-family:kenyan;-inkscape-font-specification:'kenyan Bold';fill:#494949;fill-opacity:1">Air Conditioner</flowPara></flowRoot>      <rect
         style="opacity:1;fill:#f4813f;fill-opacity:1;stroke:none;stroke-width:0.64077944;stroke-linejoin:round;stroke-miterlimit:4;stroke-dasharray:none;stroke-opacity:1;paint-order:markers fill stroke"
         id="rect955"
         width="49.136906"
         height="9.0895128"
         x="40.443451"
         y="244.69016"
         ry="1.0604429" />
      <flowRoot
         xml:space="preserve"
         id="flowRoot959"
         style="font-style:normal;font-variant:normal;font-weight:normal;font-stretch:normal;font-size:13.33333302px;line-height:1.25;font-family:kenyan;-inkscape-font-specification:kenyan;letter-spacing:0px;word-spacing:0px;fill:#f9f9f9;fill-opacity:1;stroke:none"
         transform="matrix(0.26458333,0,0,0.25970034,16.920783,110.70962)"><flowRegion
           id="flowRegion961"
           style="fill:#f9f9f9;fill-opacity:1"><rect
             id="rect963"
             width="187.14285"
             height="44.285713"
             x="151.42857"
             y="525.71429"
             style="fill:#f9f9f9;fill-opacity:1" /></flowRegion><flowPara
           id="flowPara965"
           style="font-style:normal;font-variant:normal;font-weight:bold;font-stretch:normal;font-size:12px;font-family:Provicali;-inkscape-font-specification:'Provicali Bold';fill:#f9f9f9;fill-opacity:1">PILIH JASA</flowPara></flowRoot>      <rect
         style="opacity:1;fill:#d3d3d3;fill-opacity:1;stroke:none;stroke-width:0.27553034;stroke-linejoin:round;stroke-miterlimit:4;stroke-dasharray:none;stroke-opacity:1;paint-order:markers fill stroke"
         id="rect967"
         width="49.041656"
         height="0.26458332"
         x="40.557892"
         y="209.8728"
         ry="0.13229166" />
      <flowRoot
         transform="matrix(0.26458333,0,0,0.26458333,1.47418,118.6708)"
         style="font-style:normal;font-variant:normal;font-weight:normal;font-stretch:normal;font-size:13.33333302px;line-height:1.25;font-family:kenyan;-inkscape-font-specification:kenyan;letter-spacing:0px;word-spacing:0px;fill:#f6b895;fill-opacity:1;stroke:none"
         id="flowRoot989"
         xml:space="preserve"><flowRegion
           style="fill:#f6b895;fill-opacity:1"
           id="flowRegion985"><rect
             style="fill:#f6b895;fill-opacity:1"
             y="404.8324"
             x="164.65486"
             height="58.466309"
             width="151.33217"
             id="rect983" /></flowRegion><flowPara
           style="font-style:normal;font-variant:normal;font-weight:bold;font-stretch:normal;font-size:26.66666794px;font-family:kenyan;-inkscape-font-specification:'kenyan Bold';fill:#f6b895;fill-opacity:1"
           id="flowPara987">2.000.000</flowPara></flowRoot>      <flowRoot
         transform="matrix(0.26458333,0,0,0.26458333,21.812469,113.7447)"
         style="font-style:normal;font-variant:normal;font-weight:normal;font-stretch:normal;font-size:13.33333302px;line-height:1.25;font-family:kenyan;-inkscape-font-specification:kenyan;letter-spacing:0px;word-spacing:-0.08px;fill:#d5d5d5;fill-opacity:1;stroke:none"
         id="flowRoot1027"
         xml:space="preserve"><flowRegion
           style="word-spacing:-0.08px;fill:#d5d5d5;fill-opacity:1"
           id="flowRegion1023"><rect
             style="word-spacing:-0.08px;fill:#d5d5d5;fill-opacity:1"
             y="369.47708"
             x="92.934036"
             height="62.629459"
             width="306.07623"
             id="rect1021" /></flowRegion><flowPara
           style="font-style:normal;font-variant:normal;font-weight:bold;font-stretch:normal;font-size:10.66666698px;font-family:'Nimbus Sans';-inkscape-font-specification:'Nimbus Sans Bold';letter-spacing:0.14px;word-spacing:-1px;fill:#d5d5d5;fill-opacity:1"
           id="flowPara1025">Instalasi</flowPara></flowRoot>      <g
         id="g1042"
         transform="matrix(0.43863374,0,0,0.43863374,-4.0256294,94.843314)"
         style="fill:#d5d5d5;fill-opacity:1">
        <path
           style="fill:#d5d5d5;fill-opacity:1;stroke-width:0.0161356"
           d="m 101.62021,275.30375 c -0.15785,-0.0267 -0.29518,-0.12871 -0.36516,-0.27121 l -0.045,-0.0917 -0.008,-1.26634 -0.008,-1.26633 -0.0701,-0.0387 c -0.0995,-0.0549 -0.17739,-0.13843 -0.22642,-0.24287 l -0.0423,-0.0902 v -2.03436 -2.03436 l 0.0465,-0.0919 c 0.0558,-0.11038 0.17551,-0.2225 0.28033,-0.26264 0.0706,-0.0271 0.16682,-0.03 1.24638,-0.0378 l 1.16983,-0.008 0.009,-0.4276 c 0.01,-0.46329 0.0176,-0.51019 0.10984,-0.66987 0.10534,-0.18244 0.25561,-0.30495 0.48216,-0.39309 l 0.10878,-0.0423 h 1.69424 c 1.61334,0 1.69847,0.001 1.78298,0.0302 0.29674,0.10102 0.50283,0.30179 0.59009,0.57488 0.0227,0.0712 0.0302,0.17178 0.0378,0.50827 l 0.009,0.41953 1.16983,0.008 c 1.07546,0.008 1.17594,0.0108 1.24558,0.0375 0.1066,0.0409 0.21557,0.143 0.27603,0.25866 l 0.0516,0.0987 v 2.03308 2.03309 l -0.0451,0.0919 c -0.0507,0.10323 -0.13326,0.19131 -0.22919,0.24449 l -0.0646,0.0358 -0.008,1.26613 c -0.007,1.16664 -0.0103,1.27111 -0.0366,1.32944 -0.0717,0.15879 -0.21135,0.26566 -0.38988,0.29835 -0.11236,0.0206 -8.65068,0.0218 -8.77205,10e-4 z m 8.78033,-0.35007 c 0.0985,-0.0582 0.0956,-0.0189 0.0953,-1.28996 -1.3e-4,-0.63763 -0.006,-1.1685 -0.0132,-1.17972 -0.0101,-0.016 -0.41975,0.0355 -1.88996,0.23765 -1.03236,0.14192 -1.88141,0.26241 -1.88678,0.26775 -0.005,0.005 -0.0134,0.138 -0.0178,0.29482 -0.007,0.25591 -0.0119,0.29288 -0.0454,0.36088 -0.0476,0.0967 -0.14523,0.19429 -0.24192,0.24191 -0.0713,0.0351 -0.0942,0.0373 -0.3904,0.0373 -0.36022,0 -0.40992,-0.0128 -0.52997,-0.1365 -0.12277,-0.12652 -0.13857,-0.18038 -0.14772,-0.50361 -0.004,-0.15682 -0.0125,-0.28949 -0.0178,-0.29482 -0.005,-0.005 -0.85442,-0.12583 -1.88678,-0.26775 -1.47021,-0.20211 -1.87982,-0.25362 -1.88996,-0.23765 -0.0212,0.0335 -0.0166,2.32188 0.005,2.38337 0.01,0.0288 0.0409,0.0661 0.0686,0.083 0.0491,0.03 0.15333,0.0307 4.39638,0.0308 4.06756,6e-5 4.34905,-0.002 4.39266,-0.0275 z m -4.09595,-1.4048 0.0527,-0.0527 0.005,-0.54429 c 0.005,-0.58492 -3.7e-4,-0.64025 -0.0721,-0.6967 -0.0382,-0.03 -0.0645,-0.0331 -0.27981,-0.0331 -0.21532,0 -0.24164,0.003 -0.2798,0.0331 -0.0718,0.0564 -0.0775,0.11183 -0.0721,0.69572 l 0.005,0.54329 0.0403,0.0434 c 0.0615,0.0661 0.0877,0.0716 0.32648,0.0677 l 0.2216,-0.004 z m -0.97103,-1.10903 c 0.008,-0.16687 0.0148,-0.20492 0.0512,-0.27533 0.0438,-0.0847 0.13851,-0.18157 0.21745,-0.2224 0.0876,-0.0453 0.23761,-0.0629 0.4675,-0.0549 0.25928,0.009 0.33892,0.0316 0.44716,0.12686 0.0406,0.0357 0.0925,0.10458 0.11781,0.15611 0.0397,0.0811 0.0459,0.11432 0.0511,0.27492 0.004,0.1289 0.0119,0.18505 0.0265,0.19063 0.0243,0.009 3.89317,-0.5183 3.9803,-0.54281 0.0326,-0.009 0.078,-0.0389 0.10085,-0.066 l 0.0415,-0.0494 v -1.96004 c 0,-2.12219 0.004,-2.01652 -0.0842,-2.07847 -0.0324,-0.0227 -0.50377,-0.0252 -4.7437,-0.0252 h -4.70775 l -0.0527,0.0471 -0.0527,0.0471 -0.004,1.98047 c -0.005,2.16051 -0.0104,2.01935 0.0846,2.0816 0.0284,0.0186 0.59274,0.10272 1.99656,0.29752 1.0763,0.14935 1.9787,0.27028 2.00532,0.26873 l 0.0484,-0.003 z m -1.03356,-5.24778 0.008,-0.37482 0.0447,-0.0447 0.0447,-0.0447 h 1.61282 1.61283 l 0.0447,0.0447 0.0447,0.0447 0.008,0.37482 0.008,0.37483 0.17345,0.005 0.17346,0.005 v -0.39527 c 0,-0.35791 -0.003,-0.40354 -0.0328,-0.48295 -0.0438,-0.11715 -0.14107,-0.22416 -0.25417,-0.2797 l -0.0922,-0.0453 h -1.68618 -1.68617 l -0.0746,0.0345 c -0.10851,0.0502 -0.19978,0.14009 -0.25561,0.25181 l -0.049,0.098 v 0.40943 0.40943 l 0.17346,-0.005 0.17345,-0.005 z m 3.08997,0.12473 v -0.25011 h -1.3796 -1.37959 l -0.005,0.23323 c -0.002,0.12827 -8.7e-4,0.24267 0.004,0.25422 0.007,0.0171 0.26611,0.0202 1.38409,0.0169 l 1.37603,-0.004 z"
           id="path1048" />
      </g>
      <flowRoot
         xml:space="preserve"
         id="flowRoot1103"
         style="font-style:normal;font-variant:normal;font-weight:normal;font-stretch:normal;font-size:13.33333302px;line-height:1.25;font-family:kenyan;-inkscape-font-specification:kenyan;letter-spacing:0px;word-spacing:-0.08px;fill:#d5d5d5;fill-opacity:1;stroke:none"
         transform="matrix(0.26458333,0,0,0.26458333,56.737473,113.7447)"><flowRegion
           id="flowRegion1099"
           style="word-spacing:-0.08px;fill:#d5d5d5;fill-opacity:1"><rect
             id="rect1097"
             width="306.07623"
             height="62.629459"
             x="92.934036"
             y="369.47708"
             style="word-spacing:-0.08px;fill:#d5d5d5;fill-opacity:1" /></flowRegion><flowPara
           id="flowPara1101"
           style="font-style:normal;font-variant:normal;font-weight:bold;font-stretch:normal;font-size:10.66666698px;font-family:'Nimbus Sans';-inkscape-font-specification:'Nimbus Sans Bold';letter-spacing:0.14px;word-spacing:-1px;fill:#d5d5d5;fill-opacity:1">70Km</flowPara></flowRoot>      <g
         style="fill:#6e6e6e;fill-opacity:1"
         transform="matrix(6.3410919,0,0,6.3410919,-510.11703,-1650.4093)"
         id="g1830">
        <path
           id="path1828"
           d="m 100.48767,275.95943 c -0.15785,-0.0267 -0.29518,-0.12871 -0.36516,-0.27121 l -0.045,-0.0917 -0.008,-1.26634 -0.008,-1.26633 -0.0701,-0.0387 c -0.0995,-0.0549 -0.17739,-0.13843 -0.22642,-0.24287 l -0.0423,-0.0902 v -2.03436 -2.03436 l 0.0465,-0.0919 c 0.0558,-0.11038 0.17551,-0.2225 0.28033,-0.26264 0.0706,-0.0271 0.16682,-0.03 1.24638,-0.0378 l 1.16983,-0.008 0.009,-0.4276 c 0.01,-0.46329 0.0176,-0.51019 0.10984,-0.66987 0.10534,-0.18244 0.25561,-0.30495 0.48216,-0.39309 l 0.10878,-0.0423 h 1.69424 c 1.61334,0 1.69847,0.001 1.78298,0.0302 0.29674,0.10102 0.50283,0.30179 0.59009,0.57488 0.0227,0.0712 0.0302,0.17178 0.0378,0.50827 l 0.009,0.41953 1.16983,0.008 c 1.07546,0.008 1.17594,0.0108 1.24558,0.0375 0.1066,0.0409 0.21557,0.143 0.27603,0.25866 l 0.0516,0.0987 v 2.03308 2.03309 l -0.0451,0.0919 c -0.0507,0.10323 -0.13326,0.19131 -0.22919,0.24449 l -0.0646,0.0358 -0.008,1.26613 c -0.007,1.16664 -0.0103,1.27111 -0.0366,1.32944 -0.0717,0.15879 -0.21135,0.26566 -0.38988,0.29835 -0.11236,0.0206 -8.65068,0.0218 -8.77205,10e-4 z m 8.78033,-0.35007 c 0.0985,-0.0582 0.0956,-0.0189 0.0953,-1.28996 -1.3e-4,-0.63763 -0.006,-1.1685 -0.0132,-1.17972 -0.0101,-0.016 -0.41975,0.0355 -1.88996,0.23765 -1.03236,0.14192 -1.88141,0.26241 -1.88678,0.26775 -0.005,0.005 -0.0134,0.138 -0.0178,0.29482 -0.007,0.25591 -0.0119,0.29288 -0.0454,0.36088 -0.0476,0.0967 -0.14523,0.19429 -0.24192,0.24191 -0.0713,0.0351 -0.0942,0.0373 -0.3904,0.0373 -0.36022,0 -0.40992,-0.0128 -0.52997,-0.1365 -0.12277,-0.12652 -0.13857,-0.18038 -0.14772,-0.50361 -0.004,-0.15682 -0.0125,-0.28949 -0.0178,-0.29482 -0.005,-0.005 -0.85442,-0.12583 -1.88678,-0.26775 -1.47021,-0.20211 -1.87982,-0.25362 -1.88996,-0.23765 -0.0212,0.0335 -0.0166,2.32188 0.005,2.38337 0.01,0.0288 0.0409,0.0661 0.0686,0.083 0.0491,0.03 0.15333,0.0307 4.39638,0.0308 4.06756,6e-5 4.34905,-0.002 4.39266,-0.0275 z m -4.09595,-1.4048 0.0527,-0.0527 0.005,-0.54429 c 0.005,-0.58492 -3.7e-4,-0.64025 -0.0721,-0.6967 -0.0382,-0.03 -0.0645,-0.0331 -0.27981,-0.0331 -0.21532,0 -0.24164,0.003 -0.2798,0.0331 -0.0718,0.0564 -0.0775,0.11183 -0.0721,0.69572 l 0.005,0.54329 0.0403,0.0434 c 0.0615,0.0661 0.0877,0.0716 0.32648,0.0677 l 0.2216,-0.004 z m -0.97103,-1.10903 c 0.008,-0.16687 0.0148,-0.20492 0.0512,-0.27533 0.0438,-0.0847 0.13851,-0.18157 0.21745,-0.2224 0.0876,-0.0453 0.23761,-0.0629 0.4675,-0.0549 0.25928,0.009 0.33892,0.0316 0.44716,0.12686 0.0406,0.0357 0.0925,0.10458 0.11781,0.15611 0.0397,0.0811 0.0459,0.11432 0.0511,0.27492 0.004,0.1289 0.0119,0.18505 0.0265,0.19063 0.0243,0.009 3.89317,-0.5183 3.9803,-0.54281 0.0326,-0.009 0.078,-0.0389 0.10085,-0.066 l 0.0415,-0.0494 v -1.96004 c 0,-2.12219 0.004,-2.01652 -0.0842,-2.07847 -0.0324,-0.0227 -0.50377,-0.0252 -4.7437,-0.0252 h -4.70775 l -0.0527,0.0471 -0.0527,0.0471 -0.004,1.98047 c -0.005,2.16051 -0.0104,2.01935 0.0846,2.0816 0.0284,0.0186 0.59274,0.10272 1.99656,0.29752 1.0763,0.14935 1.9787,0.27028 2.00532,0.26873 l 0.0484,-0.003 z m -1.03356,-5.24778 0.008,-0.37482 0.0447,-0.0447 0.0447,-0.0447 h 1.61282 1.61283 l 0.0447,0.0447 0.0447,0.0447 0.008,0.37482 0.008,0.37483 0.17345,0.005 0.17346,0.005 v -0.39527 c 0,-0.35791 -0.003,-0.40354 -0.0328,-0.48295 -0.0438,-0.11715 -0.14107,-0.22416 -0.25417,-0.2797 l -0.0922,-0.0453 h -1.68618 -1.68617 l -0.0746,0.0345 c -0.10851,0.0502 -0.19978,0.14009 -0.25561,0.25181 l -0.049,0.098 v 0.40943 0.40943 l 0.17346,-0.005 0.17345,-0.005 z m 3.08997,0.12473 v -0.25011 h -1.3796 -1.37959 l -0.005,0.23323 c -0.002,0.12827 -8.7e-4,0.24267 0.004,0.25422 0.007,0.0171 0.26611,0.0202 1.38409,0.0169 l 1.37603,-0.004 z"
           style="fill:#6e6e6e;fill-opacity:1;stroke-width:0.0161356" />
      </g>
      <g
         id="g1077"
         transform="matrix(0.11244976,0,0,0.11244976,80.883378,186.65874)"
         style="fill:#d5d5d5;fill-opacity:1">
        <path
           style="fill:#d5d5d5;fill-opacity:1;stroke-width:0.26458332"
           d="m -30.436816,248.91195 c -6.442967,-10.37458 -7.131179,-11.78657 -7.409386,-15.20166 -0.468096,-5.74605 3.302351,-11.58958 8.760933,-13.57789 0.727604,-0.26503 1.48303,-0.60439 1.678724,-0.75411 0.490594,-0.37536 5.630403,-0.37053 6.417116,0.006 0.349476,0.16728 1.528379,0.71632 2.619785,1.22009 3.499644,1.61536 6.066801,4.55109 7.199892,8.2336 0.76158,2.47511 0.771586,5.96328 0.02368,8.25405 -0.316695,0.97 -2.819471,5.43033 -6.309656,11.24479 -3.181615,5.30039 -5.750209,9.6833 -5.707985,9.73979 0.108796,0.14556 -0.570643,0.54985 -0.932199,0.5547 -0.166273,0.002 -3.019678,-4.3715 -6.340899,-9.71939 z m 11.795172,-2.21155 c 2.802116,-4.67248 5.321481,-9.14048 5.598587,-9.9289 1.512874,-4.3044 0.408908,-8.95966 -2.909972,-12.2709 -6.481944,-6.46703 -17.373726,-3.36639 -19.768045,5.6275 -0.476602,1.79029 -0.466169,3.35151 0.03666,5.48496 0.465059,1.97321 0.347477,1.7601 6.279333,11.38066 4.410247,7.15275 5.111673,8.20209 5.482652,8.20209 0.102317,0 2.478672,-3.82294 5.280788,-8.49541 z m -8.341671,-7.74305 c -1.498786,-0.69792 -3.123524,-2.42365 -3.57784,-3.80024 -0.165489,-0.50144 -0.25529,-1.71872 -0.199556,-2.70506 0.133351,-2.35998 1.120361,-4.03174 3.071073,-5.20165 2.399902,-1.4393 4.598421,-1.4393 6.998322,0 1.992317,1.19486 2.947986,2.84683 3.072419,5.31096 0.07757,1.53613 -0.01469,2.12546 -0.491591,3.14001 -1.577415,3.35581 -5.537598,4.80904 -8.872827,3.25598 z m 5.633047,-2.18549 c 3.442416,-2.75038 2.11816,-7.84969 -2.266234,-8.72657 -1.662062,-0.33241 -3.963119,0.88952 -4.813298,2.55601 -1.755253,3.44058 0.743088,7.30503 4.56599,7.06271 1.203315,-0.0763 1.723448,-0.26089 2.513542,-0.89215 z"
           id="path1081" />
        <path
           id="path1832"
           d="m 1098.4197,-862.30973 c -61.2211,-98.57906 -67.7604,-111.99584 -70.4038,-144.44597 -4.4479,-54.5983 31.3793,-110.1239 83.2457,-129.0167 6.9137,-2.518 14.0924,-5.743 15.9519,-7.1654 4.6617,-3.5661 53.4999,-3.5205 60.9751,0.095 3.3209,1.5897 14.5228,6.8063 24.8932,11.5934 33.2531,15.3494 57.6465,43.2443 68.4132,78.2353 7.2357,23.5183 7.3308,56.66303 0.228,78.43013 -3.0092,9.2169 -26.7898,51.59851 -59.9535,106.84672 -30.2315,50.3642 -54.6382,92.01035 -54.2372,92.54722 1.0338,1.38348 -5.4219,5.22512 -8.8578,5.27073 -1.5802,0 -28.6931,-41.53783 -60.251,-92.35337 z m 112.0776,-21.01454 c 26.6254,-44.39792 50.5637,-86.85269 53.1977,-94.34404 14.3745,-40.90029 3.8853,-85.13379 -27.6507,-116.59759 -61.5918,-61.4492 -165.0843,-31.9874 -187.8358,53.4722 -4.5286,17.0114 -4.4289,31.8459 0.3516,52.11832 4.4193,18.74927 3.3019,16.7244 59.6657,108.13803 41.9065,67.96564 48.5711,77.93605 52.0964,77.93605 0.972,0 23.5525,-36.32505 50.1779,-80.72297 z m -79.2625,-73.5737 c -14.2416,-6.63142 -29.6794,-23.02991 -33.9962,-36.11031 -1.5725,-4.76428 -2.4258,-16.33102 -1.8966,-25.70282 1.2667,-22.4246 10.646,-38.31 29.1815,-49.4263 22.8038,-13.6762 43.6938,-13.6762 66.4976,0 18.9308,11.3539 28.0118,27.0511 29.1938,50.4649 0.7412,14.5959 -0.1425,20.19545 -4.6711,29.83614 -14.9884,31.88669 -52.6181,45.69494 -84.309,30.93839 z m 53.5245,-20.76654 c 32.7105,-26.13419 20.1271,-74.58749 -21.5333,-82.91979 -15.7933,-3.1585 -37.6573,8.452 -45.7358,24.287 -16.6779,32.6924 7.0609,69.41277 43.3859,67.10949 11.4337,-0.72215 16.3757,-2.47906 23.8832,-8.4767 z"
           style="fill:#6e6e6e;fill-opacity:1;stroke-width:2.51406097" />
      </g>
      <g
         transform="translate(-4.1577356,-96.005953)"
         id="g1818">
        <path
           style="fill:#f4813f;fill-opacity:0.53846154;stroke:none;stroke-width:0.26964509px;stroke-linecap:butt;stroke-linejoin:miter;stroke-opacity:1"
           d="m 25.925144,180.42098 c 0,0 -3.207235,3.60871 3.474504,10.40976 6.681737,6.80104 22.71791,-1.24918 22.71791,-1.24918 0,0 13.764379,-4.1639 19.510674,-0.83278 5.746295,3.33113 19.777945,17.4884 26.192413,14.01848 6.414465,-3.46992 6.949005,-7.07864 6.949005,-7.07864 l -29.26601,-17.4884 c 0,0 -27.662394,1.66557 -31.671437,2.08195 -4.009044,0.4164 -17.907059,0.13881 -17.907059,0.13881 z"
           id="path1814" />
        <path
           style="fill:#f4813f;fill-opacity:1;stroke:none;stroke-width:0.26964509px;stroke-linecap:butt;stroke-linejoin:miter;stroke-opacity:1"
           d="m 25.323788,181.25376 c 0,0 3.808591,14.15727 16.904796,11.38134 13.096208,-2.77594 23.51972,-7.21744 32.606882,-3.88632 9.087165,3.33113 20.847025,12.35293 26.326054,10.82615 4.56696,-1.27262 3.60813,-3.88631 3.60813,-3.88631 l -0.0703,-49.86829 H 25.324352 Z"
           id="path1816" />
      </g>
      <flowRoot
         transform="matrix(0.26458333,0,0,0.26458333,-22.64804,128.97352)"
         style="font-style:normal;font-variant:normal;font-weight:normal;font-stretch:normal;font-size:13.33333302px;line-height:1.25;font-family:kenyan;-inkscape-font-specification:kenyan;letter-spacing:0px;word-spacing:0px;fill:#000000;fill-opacity:1;stroke:none"
         id="flowRoot1820"
         xml:space="preserve"><flowRegion
           id="flowRegion1822"><rect
             y="-330"
             x="167.14285"
             height="85.714287"
             width="351.42856"
             id="rect1824" /></flowRegion><flowPara
           id="flowPara1826">JADIIN IMAGE ATAU LU JADIIN BACKGROUND</flowPara></flowRoot>    </g>
    <g
       transform="translate(115.70578,-0.9289026)"
       id="g1276">
      <rect
         ry="3.3185122"
         y="145.82033"
         x="25.324402"
         height="113.71711"
         width="79.375"
         id="rect1196"
         style="opacity:1;fill:#f9f9f9;fill-opacity:1;stroke:none;stroke-width:1.09185708;stroke-linejoin:round;stroke-miterlimit:4;stroke-dasharray:none;stroke-opacity:1;paint-order:markers fill stroke" />
      <path
         id="path1198"
         d="m 25.925144,180.42098 c 0,0 -3.207235,3.60871 3.474504,10.40976 6.681737,6.80104 22.71791,-1.24918 22.71791,-1.24918 0,0 13.764379,-4.1639 19.510674,-0.83278 5.746295,3.33113 19.777945,17.4884 26.192413,14.01848 6.414465,-3.46992 6.949005,-7.07864 6.949005,-7.07864 l -29.26601,-17.4884 c 0,0 -27.662394,1.66557 -31.671437,2.08195 -4.009044,0.4164 -17.907059,0.13881 -17.907059,0.13881 z"
         style="fill:#b23ff4;fill-opacity:0.47337281;stroke:none;stroke-width:0.26964509px;stroke-linecap:butt;stroke-linejoin:miter;stroke-opacity:1" />
      <path
         id="path1200"
         d="m 25.323788,181.25376 c 0,0 3.808591,14.15727 16.904796,11.38134 13.096208,-2.77594 23.51972,-7.21744 32.606882,-3.88632 9.087165,3.33113 20.847025,12.35293 26.326054,10.82615 4.56696,-1.27262 3.60813,-3.88631 3.60813,-3.88631 l -0.0703,-49.86829 H 25.324352 Z"
         style="fill:#b23ff4;fill-opacity:1;stroke:none;stroke-width:0.26964509px;stroke-linecap:butt;stroke-linejoin:miter;stroke-opacity:1" />
      <flowRoot
         transform="matrix(0.26458333,0,0,0.26458333,-25.469909,108.05318)"
         style="font-style:normal;font-variant:normal;font-weight:normal;font-stretch:normal;font-size:13.33333302px;line-height:1.25;font-family:kenyan;-inkscape-font-specification:kenyan;letter-spacing:0px;word-spacing:0px;fill:#000000;fill-opacity:1;stroke:none"
         id="flowRoot1208"
         xml:space="preserve"><flowRegion
           id="flowRegion1204"><rect
             y="160"
             x="192.85715"
             height="66.927498"
             width="298.82166"
             id="rect1202" /></flowRegion><flowPara
           style="font-style:normal;font-variant:normal;font-weight:bold;font-stretch:normal;font-size:24px;font-family:Provicali;-inkscape-font-specification:'Provicali Bold';text-align:center;text-anchor:middle;fill:#f9f9f9;fill-opacity:1"
           id="flowPara1206">LG TECH</flowPara></flowRoot>      <g
         transform="matrix(0.88731553,0,0,0.88731553,-11.470733,19.353288)"
         id="g1212">
        <path
           id="path1210"
           d="m 85.68998,184.22193 c -1.120849,-0.0676 -2.636025,-0.34452 -3.492545,-0.63823 -0.983518,-0.33727 -2.257835,-0.94022 -2.950597,-1.39609 -0.639281,-0.42067 -1.34114,-0.974 -1.918054,-1.51214 -0.644427,-0.60111 -0.719722,-0.68122 -1.167445,-1.24199 -1.339468,-1.67766 -2.259945,-3.63075 -2.683416,-5.69373 -0.186526,-0.90869 -0.21909,-1.29666 -0.217707,-2.59366 0.0014,-1.17081 0.0077,-1.28213 0.111546,-1.914 0.331884,-2.02017 1.03921,-3.81268 2.149003,-5.446 0.693815,-1.02112 1.576356,-1.95319 2.690829,-2.84188 3.045527,-2.42849 7.123574,-3.34928 10.916601,-2.46486 0.370117,0.0863 1.375265,0.37072 1.524607,0.4314 0.0487,0.0198 0.230614,0.0891 0.404253,0.15413 0.806532,0.30183 1.717671,0.76816 2.427022,1.24217 2.486291,1.66139 4.290239,4.04701 5.231837,6.91881 0.226757,0.6916 0.409752,1.546 0.535353,2.49953 0.07778,0.59054 0.06715,2.39704 -0.01766,2.99925 -0.329594,2.34056 -1.076848,4.26269 -2.350622,6.04645 -0.453656,0.63527 -0.756068,0.99392 -1.319235,1.56453 -0.647345,0.65591 -1.538768,1.39703 -2.201067,1.82997 -0.854359,0.55848 -2.257939,1.19836 -3.351433,1.5279 -1.376313,0.41478 -2.971737,0.60987 -4.321284,0.52844 z m 1.722361,-1.98766 c 1.242711,-0.12346 2.334387,-0.43139 3.644714,-1.02808 0.255473,-0.11634 1.068095,-0.5634 1.239544,-0.68194 2.270652,-1.56987 3.826334,-3.63091 4.561649,-6.04347 0.33219,-1.08991 0.456214,-1.86279 0.482254,-3.00526 0.02852,-1.25035 -0.05859,-2.0449 -0.345022,-3.14807 -0.227257,-0.87525 -0.707552,-1.93563 -1.377758,-3.04174 -0.529589,-0.87403 -0.796333,-1.21268 -1.539508,-1.95453 -1.741909,-1.73878 -3.626658,-2.67256 -6.336114,-3.13915 -0.744818,-0.12827 -2.238023,-0.11532 -3.137375,0.0272 -1.927925,0.30551 -3.687215,1.077 -5.209216,2.28435 -0.470268,0.37305 -1.494083,1.38185 -1.822256,1.79553 -1.244,1.56816 -2.014442,3.40901 -2.328831,5.56439 -0.06897,0.47281 -0.0684,2.16618 9.45e-4,2.66381 0.178445,1.28154 0.496671,2.32531 1.082111,3.54922 0.820392,1.71512 2.204189,3.27546 3.936288,4.43849 0.729796,0.49003 2.175637,1.13828 3.04014,1.36307 0.517849,0.13465 1.212919,0.26398 1.813906,0.33751 0.513741,0.0629 1.748597,0.0729 2.294581,0.0186 z m -6.809531,-4.2945 c -0.01138,-0.0185 -0.0574,-0.27151 -0.102233,-0.56235 -0.04485,-0.29085 -0.12434,-0.7952 -0.176703,-1.12077 -0.05236,-0.32558 -0.167766,-1.05369 -0.25645,-1.61801 -0.08868,-0.56434 -0.188765,-1.19478 -0.2224,-1.40097 -0.03361,-0.2062 -0.08644,-0.56138 -0.117339,-0.78928 -0.03092,-0.2279 -0.07403,-0.50316 -0.09583,-0.61169 -0.02181,-0.10853 -0.06529,-0.37955 -0.09664,-0.60227 -0.03134,-0.22272 -0.07495,-0.50687 -0.0969,-0.63143 -0.02195,-0.12455 -0.09616,-0.58271 -0.164907,-1.01813 l -0.124991,-0.79166 0.08245,-0.1864 c 0.138446,-0.31298 0.04617,-0.30211 2.566503,-0.30211 h 2.207087 l 0.02413,0.60182 c 0.01327,0.331 0.04253,1.61407 0.06496,2.85126 0.02242,1.23718 0.0576,2.96866 0.07812,3.84771 0.02053,0.87906 0.03753,1.77144 0.03786,1.98306 l 4.71e-4,0.38477 h -1.79327 c -0.986303,0 -1.802603,-0.0151 -1.814009,-0.0336 z m 2.143536,-1.75774 c 0.03045,-0.0367 0.04188,-0.21671 0.03441,-0.54262 l -0.01109,-0.48774 -0.490184,-0.0112 c -0.365642,-0.009 -0.498343,0.002 -0.522291,0.0394 -0.03842,0.0605 -0.04475,0.99289 -0.007,1.03062 0.01444,0.0144 0.234278,0.0263 0.488462,0.0263 0.346504,0 0.473553,-0.0137 0.507704,-0.0549 z m -0.0836,-2.05643 c 0.01737,-0.65612 0.0535,-0.61169 -0.497634,-0.61169 -0.308988,0 -0.480805,0.0159 -0.512279,0.0473 -0.05985,0.0599 -0.06466,0.83316 -0.0058,0.94304 0.03829,0.0716 0.07859,0.0766 0.522895,0.0665 l 0.481399,-0.0111 z m -1.040351,-1.18673 c 0.0786,-0.0786 0.09088,-0.87992 0.01463,-0.95615 -0.06531,-0.0653 -0.944964,-0.0653 -1.010271,0 -0.0497,0.0497 -0.06898,0.83696 -0.02341,0.95574 0.03517,0.0917 0.927374,0.0921 1.019014,4.5e-4 z m 1.223375,-1.65748 c 0.04838,-0.0484 0.06202,-0.15175 0.06202,-0.47034 0,-0.22458 -0.01081,-0.43641 -0.02394,-0.47074 -0.03569,-0.093 -0.981917,-0.093 -1.01761,0 -0.04018,0.10468 -0.02667,0.84537 0.0169,0.92676 0.03654,0.0683 0.08611,0.0764 0.470749,0.0764 0.33819,0 0.443123,-0.0132 0.491908,-0.062 z m -1.599049,-0.54536 c 0.03045,-0.0367 0.04188,-0.21672 0.03442,-0.54262 l -0.01109,-0.48776 -0.487749,-0.0111 c -0.325903,-0.008 -0.505961,0.003 -0.542628,0.0344 -0.07247,0.0602 -0.07902,0.94309 -0.0075,1.01458 0.0715,0.0715 0.954438,0.065 1.014585,-0.008 z m 7.950836,6.93144 c 0.01425,-0.12479 0.05164,-0.36898 0.08312,-0.54262 0.197332,-1.08875 0.301841,-1.87972 0.255714,-1.93531 -0.04008,-0.0483 -0.248813,-0.0576 -1.287328,-0.0576 -1.101084,0 -1.24223,0.007 -1.263804,0.0633 -0.01336,0.0348 0.04254,0.57201 0.124189,1.19378 0.08166,0.62176 0.157613,1.20595 0.168782,1.2982 l 0.0203,0.16772 h -0.65752 c -0.492252,0 -0.661038,-0.0124 -0.671505,-0.0493 -0.01648,-0.0582 -0.08341,-0.82415 -0.16119,-1.84493 -0.03059,-0.40155 -0.08371,-1.0231 -0.118033,-1.38123 -0.03432,-0.35814 -0.141274,-1.57461 -0.237662,-2.70328 -0.166548,-1.9501 -0.460893,-5.33682 -0.589934,-6.78777 -0.06973,-0.78401 -0.0759,-1.14086 -0.02148,-1.24254 0.05834,-0.109 0.283223,-0.17118 0.451258,-0.12479 0.112232,0.0309 1.969105,0.68415 3.219176,1.13236 0.141085,0.0506 0.380829,0.13612 0.532761,0.19011 1.698742,0.60352 2.401928,0.85933 2.494337,0.9074 0.243629,0.12674 0.405885,0.40793 0.40674,0.70488 4.43e-4,0.15028 -0.123769,0.99515 -0.35552,2.41842 -0.04239,0.26047 -0.122028,0.76659 -0.176925,1.12473 -0.0549,0.35813 -0.126262,0.8021 -0.158584,0.98659 -0.03234,0.18449 -0.08612,0.54678 -0.119549,0.80507 -0.03342,0.25831 -0.06899,0.48291 -0.07902,0.49913 -0.01001,0.0162 -0.03692,0.16894 -0.05976,0.33938 -0.02285,0.17043 -0.103512,0.70056 -0.179256,1.17808 -0.525544,3.31303 -0.608133,3.81556 -0.633928,3.8573 -0.01015,0.0164 -0.241849,0.0299 -0.51487,0.0299 h -0.496401 z m -0.817278,-3.29522 c 0.0559,-0.0885 0.06641,-0.89261 0.01251,-0.95754 -0.06292,-0.0758 -0.90403,-0.0855 -0.978254,-0.0113 -0.05073,0.0507 -0.06967,0.94323 -0.02106,0.99185 0.05079,0.0508 0.953461,0.0297 0.98678,-0.023 z m 1.188235,-2.52164 c 0.01431,-0.59339 0.02053,-0.58634 -0.517065,-0.58552 -0.220926,3e-4 -0.428324,0.0174 -0.460878,0.038 -0.04665,0.0295 -0.0592,0.12762 -0.0592,0.4631 0,0.23413 0.01298,0.45733 0.02884,0.49598 0.02583,0.0629 0.07964,0.0691 0.513029,0.0592 l 0.484199,-0.0111 z m -2.304203,-0.9248 c 0.01317,-0.0343 0.02394,-0.25505 0.02394,-0.49048 0,-0.5556 0.0033,-0.55227 -0.525714,-0.55147 -0.220926,2.9e-4 -0.428323,0.0174 -0.460883,0.038 -0.04728,0.0299 -0.05919,0.13326 -0.05919,0.51381 0,0.38052 0.0119,0.48396 0.05919,0.5139 0.03257,0.0206 0.257084,0.0377 0.498942,0.0381 0.364957,4.4e-4 0.443818,-0.01 0.463702,-0.0618 z m 1.999794,-1.20336 c 0.05491,-0.0868 0.04593,-0.9193 -0.01053,-0.97576 -0.03125,-0.0313 -0.198762,-0.0473 -0.491908,-0.0473 -0.399125,0 -0.448726,0.008 -0.485407,0.0763 -0.04627,0.0864 -0.05513,0.86662 -0.01067,0.93529 0.04419,0.0682 0.152018,0.0822 0.57488,0.0747 0.287093,-0.005 0.397285,-0.0216 0.423631,-0.0632 z m 1.804402,-2.28596 c 0.01714,-0.67884 0.05451,-0.63142 -0.497611,-0.63142 -0.308983,0 -0.4808,0.0159 -0.512273,0.0473 -0.06623,0.0662 -0.06523,0.94505 0.0014,1.01142 0.03432,0.0343 0.187466,0.0453 0.522895,0.0375 l 0.474404,-0.011 z m -1.829606,-0.10148 c 0.08479,-0.0848 0.09074,-0.89108 0.007,-0.9605 -0.03654,-0.0303 -0.211613,-0.0418 -0.522895,-0.0344 l -0.467969,0.0112 -0.01109,0.45966 c -0.01435,0.59419 -0.02153,0.58613 0.524108,0.58613 0.318958,0 0.422357,-0.0136 0.47075,-0.062 z m -2.01306,-0.47497 c 0.052,-0.0199 0.06242,-0.10103 0.06242,-0.4854 0,-0.30629 -0.01591,-0.47737 -0.04736,-0.5088 -0.05745,-0.0575 -0.850492,-0.0649 -0.939238,-0.009 -0.04707,0.0297 -0.05919,0.13111 -0.05919,0.49414 0,0.36302 0.01213,0.46439 0.05919,0.49413 0.06495,0.0411 0.824019,0.0531 0.924174,0.0147 z m 3.412076,11.01643 c -0.03011,-0.0301 0.12188,-1.01146 0.474045,-3.06025 0.04291,-0.24961 0.241703,-1.44832 0.441773,-2.66381 0.200071,-1.21548 0.375107,-2.22311 0.388967,-2.23919 0.01387,-0.0161 0.08664,-0.0112 0.161733,0.0109 0.07509,0.0221 0.722428,0.20071 1.438524,0.39695 0.716097,0.19624 1.357957,0.39139 1.426362,0.43366 0.147897,0.0914 0.251163,0.29045 0.251163,0.48411 0,0.077 -0.08168,0.37624 -0.181518,0.66492 -0.09983,0.28869 -0.276667,0.80902 -0.392964,1.1563 -0.216357,0.64607 -0.80538,2.36853 -1.331372,3.89328 -0.162134,0.47001 -0.30682,0.87402 -0.321517,0.8978 -0.02615,0.0423 -2.313644,0.0668 -2.355196,0.0253 z m 2.589649,-2.68534 v -0.51303 l -0.490186,-0.0112 c -0.365641,-0.009 -0.498342,0.002 -0.52229,0.0394 -0.03909,0.0616 -0.04438,0.95378 -0.0059,0.99228 0.0151,0.0151 0.250389,0.0225 0.522894,0.0164 l 0.495463,-0.011 z m 0.492743,-1.30165 c 0.07375,-0.0889 0.03989,-0.95798 -0.03923,-1.00802 -0.03238,-0.0205 -0.239621,-0.0375 -0.460548,-0.0378 -0.528929,-8.6e-4 -0.525714,-0.004 -0.525714,0.55189 0,0.55916 -0.0066,0.55249 0.550479,0.55249 0.328767,0 0.437577,-0.0134 0.475026,-0.0585 z m -0.39442,-1.95308 c 0.07916,-0.05 0.112996,-0.91916 0.03923,-1.00803 -0.03772,-0.0454 -0.148713,-0.0585 -0.49619,-0.0585 -0.543128,0 -0.529315,-0.0148 -0.529315,0.56682 0,0.53977 -0.0014,0.53836 0.525713,0.53757 0.220927,-3e-4 0.428174,-0.0174 0.460548,-0.0378 z m -13.456818,5.77287 c -0.141084,-0.0533 -0.358626,-0.13274 -0.483429,-0.17656 -0.124803,-0.0438 -0.226917,-0.0848 -0.226917,-0.091 0,-0.006 -0.168461,-0.71051 -0.374362,-1.56506 -0.205896,-0.85455 -0.420421,-1.74906 -0.476716,-1.98782 -0.343738,-1.45777 -0.393277,-1.66618 -0.568186,-2.39035 -0.190653,-0.78933 -0.141472,-1.31159 0.163267,-1.73379 0.668932,-0.92679 0.759038,-1.02033 0.907826,-0.94244 0.102733,0.0538 0.06369,-0.19387 1.019599,6.46754 0.107454,0.74883 0.212604,1.45918 0.233659,1.57856 0.08155,0.46228 0.12477,0.88007 0.09398,0.90831 -0.0177,0.0162 -0.147637,-0.0141 -0.288722,-0.0674 z m 5.248683,-0.065 c -0.227905,-0.0903 -0.436567,-0.17859 -0.463697,-0.19614 -0.03749,-0.0242 -0.04962,-0.29492 -0.05054,-1.12472 -4.72e-4,-0.60103 -0.01728,-1.61667 -0.03692,-2.25697 -0.01964,-0.6403 -0.05704,-2.25635 -0.08312,-3.59121 -0.02852,-1.45822 -0.06294,-2.44671 -0.08631,-2.47635 -0.0296,-0.0376 -0.328678,-0.0493 -1.252601,-0.0493 -0.924263,0 -1.222833,-0.0118 -1.251955,-0.0493 -0.04145,-0.0534 -0.24767,-1.35408 -0.24767,-1.562 0,-0.17944 0.130264,-0.52828 0.261553,-0.70041 0.106146,-0.13916 0.49188,-0.44455 1.528474,-1.2101 0.398498,-0.2943 0.490652,-0.34562 0.620643,-0.34562 0.116093,0 0.167015,0.0219 0.212599,0.0915 0.06837,0.10436 0.137403,0.75269 0.454529,4.26927 0.04112,0.45581 0.102738,1.13951 0.136968,1.51936 0.03423,0.37983 0.08822,0.93035 0.119974,1.22337 0.03177,0.29302 0.07626,0.80802 0.09891,1.14445 0.02266,0.33643 0.05773,0.72712 0.07797,0.8682 0.02025,0.14108 0.05575,0.49626 0.07892,0.78928 0.04046,0.51195 0.112047,1.28708 0.275154,2.97951 0.04183,0.4341 0.06379,0.80102 0.04878,0.81537 -0.01501,0.0144 -0.213751,-0.0478 -0.441655,-0.13812 z"
           style="fill:#ffffff;fill-opacity:1;stroke-width:0.03946378" />
      </g>
      <flowRoot
         style="font-style:normal;font-variant:normal;font-weight:normal;font-stretch:normal;font-size:13.33333302px;line-height:1.25;font-family:'Source Code Pro';-inkscape-font-specification:'Source Code Pro';letter-spacing:0px;word-spacing:0px;fill:#000000;fill-opacity:1;stroke:none"
         id="flowRoot1220"
         xml:space="preserve"><flowRegion
           style="font-style:normal;font-variant:normal;font-weight:normal;font-stretch:normal;font-family:'Source Code Pro';-inkscape-font-specification:'Source Code Pro'"
           id="flowRegion1216"><rect
             style="font-style:normal;font-variant:normal;font-weight:normal;font-stretch:normal;font-family:'Source Code Pro';-inkscape-font-specification:'Source Code Pro'"
             y="366.44659"
             x="93.944183"
             height="61.619305"
             width="300.01532"
             id="rect1214" /></flowRegion><flowPara
           id="flowPara1218"></flowPara></flowRoot>      <flowRoot
         transform="matrix(0.26458333,0,0,0.26458333,22.341639,106.49995)"
         style="font-style:normal;font-variant:normal;font-weight:normal;font-stretch:normal;font-size:13.33333302px;line-height:1.25;font-family:kenyan;-inkscape-font-specification:kenyan;letter-spacing:0px;word-spacing:0px;fill:#494949;fill-opacity:1;stroke:none"
         id="flowRoot1228"
         xml:space="preserve"><flowRegion
           style="fill:#494949;fill-opacity:1"
           id="flowRegion1224"><rect
             style="fill:#494949;fill-opacity:1"
             y="369.47708"
             x="92.934036"
             height="62.629459"
             width="306.07623"
             id="rect1222" /></flowRegion><flowPara
           style="font-style:normal;font-variant:normal;font-weight:bold;font-stretch:normal;font-size:16px;font-family:kenyan;-inkscape-font-specification:'kenyan Bold';fill:#494949;fill-opacity:1"
           id="flowPara1226">Air Conditioner</flowPara></flowRoot>      <rect
         ry="1.0604429"
         y="244.69016"
         x="40.443451"
         height="9.0895128"
         width="49.136906"
         id="rect1230"
         style="opacity:1;fill:#b23ff4;fill-opacity:1;stroke:none;stroke-width:0.64077944;stroke-linejoin:round;stroke-miterlimit:4;stroke-dasharray:none;stroke-opacity:1;paint-order:markers fill stroke" />
      <flowRoot
         transform="matrix(0.26458333,0,0,0.25970034,16.920783,110.70962)"
         style="font-style:normal;font-variant:normal;font-weight:normal;font-stretch:normal;font-size:13.33333302px;line-height:1.25;font-family:kenyan;-inkscape-font-specification:kenyan;letter-spacing:0px;word-spacing:0px;fill:#f9f9f9;fill-opacity:1;stroke:none"
         id="flowRoot1238"
         xml:space="preserve"><flowRegion
           style="fill:#f9f9f9;fill-opacity:1"
           id="flowRegion1234"><rect
             style="fill:#f9f9f9;fill-opacity:1"
             y="525.71429"
             x="151.42857"
             height="44.285713"
             width="187.14285"
             id="rect1232" /></flowRegion><flowPara
           style="font-style:normal;font-variant:normal;font-weight:bold;font-stretch:normal;font-size:12px;font-family:Provicali;-inkscape-font-specification:'Provicali Bold';fill:#f9f9f9;fill-opacity:1"
           id="flowPara1236">PILIH JASA</flowPara></flowRoot>      <rect
         ry="0.13229166"
         y="209.8728"
         x="40.557892"
         height="0.26458332"
         width="49.041656"
         id="rect1240"
         style="opacity:1;fill:#d3d3d3;fill-opacity:1;stroke:none;stroke-width:0.27553034;stroke-linejoin:round;stroke-miterlimit:4;stroke-dasharray:none;stroke-opacity:1;paint-order:markers fill stroke" />
      <flowRoot
         xml:space="preserve"
         id="flowRoot1248"
         style="font-style:normal;font-variant:normal;font-weight:normal;font-stretch:normal;font-size:13.33333302px;line-height:1.25;font-family:kenyan;-inkscape-font-specification:kenyan;letter-spacing:0px;word-spacing:0px;fill:#d7a0f6;fill-opacity:1;stroke:none"
         transform="matrix(0.26458333,0,0,0.26458333,1.47418,118.6708)"><flowRegion
           id="flowRegion1244"
           style="fill:#d7a0f6;fill-opacity:1"><rect
             id="rect1242"
             width="151.33217"
             height="58.466309"
             x="164.65486"
             y="404.8324"
             style="fill:#d7a0f6;fill-opacity:1" /></flowRegion><flowPara
           id="flowPara1246"
           style="font-style:normal;font-variant:normal;font-weight:bold;font-stretch:normal;font-size:26.66666794px;font-family:kenyan;-inkscape-font-specification:'kenyan Bold';fill:#d7a0f6;fill-opacity:1">2.000.000</flowPara></flowRoot>      <g
         transform="translate(-0.52916667)"
         id="g1270">
        <flowRoot
           transform="matrix(0.26458333,0,0,0.26458333,22.341636,113.7447)"
           style="font-style:normal;font-variant:normal;font-weight:normal;font-stretch:normal;font-size:13.33333302px;line-height:1.25;font-family:kenyan;-inkscape-font-specification:kenyan;letter-spacing:0px;word-spacing:-0.08px;fill:#d5d5d5;fill-opacity:1;stroke:none"
           id="flowRoot1256"
           xml:space="preserve"><flowRegion
             style="word-spacing:-0.08px;fill:#d5d5d5;fill-opacity:1"
             id="flowRegion1252"><rect
               style="word-spacing:-0.08px;fill:#d5d5d5;fill-opacity:1"
               y="369.47708"
               x="92.934036"
               height="62.629459"
               width="306.07623"
               id="rect1250" /></flowRegion><flowPara
             style="font-style:normal;font-variant:normal;font-weight:bold;font-stretch:normal;font-size:10.66666698px;font-family:'Nimbus Sans';-inkscape-font-specification:'Nimbus Sans Bold';letter-spacing:0.14px;word-spacing:-1px;fill:#d5d5d5;fill-opacity:1"
             id="flowPara1254">Instalasi</flowPara></flowRoot>        <g
           id="g1260"
           transform="matrix(0.43863374,0,0,0.43863374,-3.4964627,94.843314)"
           style="fill:#d5d5d5;fill-opacity:1">
          <path
             style="fill:#d5d5d5;fill-opacity:1;stroke-width:0.0161356"
             d="m 101.62021,275.30375 c -0.15785,-0.0267 -0.29518,-0.12871 -0.36516,-0.27121 l -0.045,-0.0917 -0.008,-1.26634 -0.008,-1.26633 -0.0701,-0.0387 c -0.0995,-0.0549 -0.17739,-0.13843 -0.22642,-0.24287 l -0.0423,-0.0902 v -2.03436 -2.03436 l 0.0465,-0.0919 c 0.0558,-0.11038 0.17551,-0.2225 0.28033,-0.26264 0.0706,-0.0271 0.16682,-0.03 1.24638,-0.0378 l 1.16983,-0.008 0.009,-0.4276 c 0.01,-0.46329 0.0176,-0.51019 0.10984,-0.66987 0.10534,-0.18244 0.25561,-0.30495 0.48216,-0.39309 l 0.10878,-0.0423 h 1.69424 c 1.61334,0 1.69847,0.001 1.78298,0.0302 0.29674,0.10102 0.50283,0.30179 0.59009,0.57488 0.0227,0.0712 0.0302,0.17178 0.0378,0.50827 l 0.009,0.41953 1.16983,0.008 c 1.07546,0.008 1.17594,0.0108 1.24558,0.0375 0.1066,0.0409 0.21557,0.143 0.27603,0.25866 l 0.0516,0.0987 v 2.03308 2.03309 l -0.0451,0.0919 c -0.0507,0.10323 -0.13326,0.19131 -0.22919,0.24449 l -0.0646,0.0358 -0.008,1.26613 c -0.007,1.16664 -0.0103,1.27111 -0.0366,1.32944 -0.0717,0.15879 -0.21135,0.26566 -0.38988,0.29835 -0.11236,0.0206 -8.65068,0.0218 -8.77205,10e-4 z m 8.78033,-0.35007 c 0.0985,-0.0582 0.0956,-0.0189 0.0953,-1.28996 -1.3e-4,-0.63763 -0.006,-1.1685 -0.0132,-1.17972 -0.0101,-0.016 -0.41975,0.0355 -1.88996,0.23765 -1.03236,0.14192 -1.88141,0.26241 -1.88678,0.26775 -0.005,0.005 -0.0134,0.138 -0.0178,0.29482 -0.007,0.25591 -0.0119,0.29288 -0.0454,0.36088 -0.0476,0.0967 -0.14523,0.19429 -0.24192,0.24191 -0.0713,0.0351 -0.0942,0.0373 -0.3904,0.0373 -0.36022,0 -0.40992,-0.0128 -0.52997,-0.1365 -0.12277,-0.12652 -0.13857,-0.18038 -0.14772,-0.50361 -0.004,-0.15682 -0.0125,-0.28949 -0.0178,-0.29482 -0.005,-0.005 -0.85442,-0.12583 -1.88678,-0.26775 -1.47021,-0.20211 -1.87982,-0.25362 -1.88996,-0.23765 -0.0212,0.0335 -0.0166,2.32188 0.005,2.38337 0.01,0.0288 0.0409,0.0661 0.0686,0.083 0.0491,0.03 0.15333,0.0307 4.39638,0.0308 4.06756,6e-5 4.34905,-0.002 4.39266,-0.0275 z m -4.09595,-1.4048 0.0527,-0.0527 0.005,-0.54429 c 0.005,-0.58492 -3.7e-4,-0.64025 -0.0721,-0.6967 -0.0382,-0.03 -0.0645,-0.0331 -0.27981,-0.0331 -0.21532,0 -0.24164,0.003 -0.2798,0.0331 -0.0718,0.0564 -0.0775,0.11183 -0.0721,0.69572 l 0.005,0.54329 0.0403,0.0434 c 0.0615,0.0661 0.0877,0.0716 0.32648,0.0677 l 0.2216,-0.004 z m -0.97103,-1.10903 c 0.008,-0.16687 0.0148,-0.20492 0.0512,-0.27533 0.0438,-0.0847 0.13851,-0.18157 0.21745,-0.2224 0.0876,-0.0453 0.23761,-0.0629 0.4675,-0.0549 0.25928,0.009 0.33892,0.0316 0.44716,0.12686 0.0406,0.0357 0.0925,0.10458 0.11781,0.15611 0.0397,0.0811 0.0459,0.11432 0.0511,0.27492 0.004,0.1289 0.0119,0.18505 0.0265,0.19063 0.0243,0.009 3.89317,-0.5183 3.9803,-0.54281 0.0326,-0.009 0.078,-0.0389 0.10085,-0.066 l 0.0415,-0.0494 v -1.96004 c 0,-2.12219 0.004,-2.01652 -0.0842,-2.07847 -0.0324,-0.0227 -0.50377,-0.0252 -4.7437,-0.0252 h -4.70775 l -0.0527,0.0471 -0.0527,0.0471 -0.004,1.98047 c -0.005,2.16051 -0.0104,2.01935 0.0846,2.0816 0.0284,0.0186 0.59274,0.10272 1.99656,0.29752 1.0763,0.14935 1.9787,0.27028 2.00532,0.26873 l 0.0484,-0.003 z m -1.03356,-5.24778 0.008,-0.37482 0.0447,-0.0447 0.0447,-0.0447 h 1.61282 1.61283 l 0.0447,0.0447 0.0447,0.0447 0.008,0.37482 0.008,0.37483 0.17345,0.005 0.17346,0.005 v -0.39527 c 0,-0.35791 -0.003,-0.40354 -0.0328,-0.48295 -0.0438,-0.11715 -0.14107,-0.22416 -0.25417,-0.2797 l -0.0922,-0.0453 h -1.68618 -1.68617 l -0.0746,0.0345 c -0.10851,0.0502 -0.19978,0.14009 -0.25561,0.25181 l -0.049,0.098 v 0.40943 0.40943 l 0.17346,-0.005 0.17345,-0.005 z m 3.08997,0.12473 v -0.25011 h -1.3796 -1.37959 l -0.005,0.23323 c -0.002,0.12827 -8.7e-4,0.24267 0.004,0.25422 0.007,0.0171 0.26611,0.0202 1.38409,0.0169 l 1.37603,-0.004 z"
             id="path1258" />
        </g>
        <flowRoot
           xml:space="preserve"
           id="flowRoot1268"
           style="font-style:normal;font-variant:normal;font-weight:normal;font-stretch:normal;font-size:13.33333302px;line-height:1.25;font-family:kenyan;-inkscape-font-specification:kenyan;letter-spacing:0px;word-spacing:-0.08px;fill:#d5d5d5;fill-opacity:1;stroke:none"
           transform="matrix(0.26458333,0,0,0.26458333,57.26664,113.7447)"><flowRegion
             id="flowRegion1264"
             style="word-spacing:-0.08px;fill:#d5d5d5;fill-opacity:1"><rect
               id="rect1262"
               width="306.07623"
               height="62.629459"
               x="92.934036"
               y="369.47708"
               style="word-spacing:-0.08px;fill:#d5d5d5;fill-opacity:1" /></flowRegion><flowPara
             id="flowPara1266"
             style="font-style:normal;font-variant:normal;font-weight:bold;font-stretch:normal;font-size:10.66666698px;font-family:'Nimbus Sans';-inkscape-font-specification:'Nimbus Sans Bold';letter-spacing:0.14px;word-spacing:-1px;fill:#d5d5d5;fill-opacity:1">70Km</flowPara></flowRoot>      </g>
      <g
         style="fill:#d5d5d5;fill-opacity:1"
         transform="matrix(0.11244976,0,0,0.11244976,80.883378,186.65874)"
         id="g1274">
        <path
           id="path1272"
           d="m -30.436816,248.91195 c -6.442967,-10.37458 -7.131179,-11.78657 -7.409386,-15.20166 -0.468096,-5.74605 3.302351,-11.58958 8.760933,-13.57789 0.727604,-0.26503 1.48303,-0.60439 1.678724,-0.75411 0.490594,-0.37536 5.630403,-0.37053 6.417116,0.006 0.349476,0.16728 1.528379,0.71632 2.619785,1.22009 3.499644,1.61536 6.066801,4.55109 7.199892,8.2336 0.76158,2.47511 0.771586,5.96328 0.02368,8.25405 -0.316695,0.97 -2.819471,5.43033 -6.309656,11.24479 -3.181615,5.30039 -5.750209,9.6833 -5.707985,9.73979 0.108796,0.14556 -0.570643,0.54985 -0.932199,0.5547 -0.166273,0.002 -3.019678,-4.3715 -6.340899,-9.71939 z m 11.795172,-2.21155 c 2.802116,-4.67248 5.321481,-9.14048 5.598587,-9.9289 1.512874,-4.3044 0.408908,-8.95966 -2.909972,-12.2709 -6.481944,-6.46703 -17.373726,-3.36639 -19.768045,5.6275 -0.476602,1.79029 -0.466169,3.35151 0.03666,5.48496 0.465059,1.97321 0.347477,1.7601 6.279333,11.38066 4.410247,7.15275 5.111673,8.20209 5.482652,8.20209 0.102317,0 2.478672,-3.82294 5.280788,-8.49541 z m -8.341671,-7.74305 c -1.498786,-0.69792 -3.123524,-2.42365 -3.57784,-3.80024 -0.165489,-0.50144 -0.25529,-1.71872 -0.199556,-2.70506 0.133351,-2.35998 1.120361,-4.03174 3.071073,-5.20165 2.399902,-1.4393 4.598421,-1.4393 6.998322,0 1.992317,1.19486 2.947986,2.84683 3.072419,5.31096 0.07757,1.53613 -0.01469,2.12546 -0.491591,3.14001 -1.577415,3.35581 -5.537598,4.80904 -8.872827,3.25598 z m 5.633047,-2.18549 c 3.442416,-2.75038 2.11816,-7.84969 -2.266234,-8.72657 -1.662062,-0.33241 -3.963119,0.88952 -4.813298,2.55601 -1.755253,3.44058 0.743088,7.30503 4.56599,7.06271 1.203315,-0.0763 1.723448,-0.26089 2.513542,-0.89215 z"
           style="fill:#d5d5d5;fill-opacity:1;stroke-width:0.26458332" />
      </g>
    </g>
    <g
       id="g1358"
       transform="translate(201.95999,-0.9289026)">
      <rect
         style="opacity:1;fill:#f9f9f9;fill-opacity:1;stroke:none;stroke-width:1.09185708;stroke-linejoin:round;stroke-miterlimit:4;stroke-dasharray:none;stroke-opacity:1;paint-order:markers fill stroke"
         id="rect1278"
         width="79.375"
         height="113.71711"
         x="25.324402"
         y="145.82033"
         ry="3.3185122" />
      <path
         style="fill:#3ff4c4;fill-opacity:0.39053255;stroke:none;stroke-width:0.26964509px;stroke-linecap:butt;stroke-linejoin:miter;stroke-opacity:1"
         d="m 25.925144,180.42098 c 0,0 -3.207235,3.60871 3.474504,10.40976 6.681737,6.80104 22.71791,-1.24918 22.71791,-1.24918 0,0 13.764379,-4.1639 19.510674,-0.83278 5.746295,3.33113 19.777945,17.4884 26.192413,14.01848 6.414465,-3.46992 6.949005,-7.07864 6.949005,-7.07864 l -29.26601,-17.4884 c 0,0 -27.662394,1.66557 -31.671437,2.08195 -4.009044,0.4164 -17.907059,0.13881 -17.907059,0.13881 z"
         id="path1280" />
      <path
         style="fill:#3ff4c4;fill-opacity:1;stroke:none;stroke-width:0.26964509px;stroke-linecap:butt;stroke-linejoin:miter;stroke-opacity:1"
         d="m 25.323788,181.25376 c 0,0 3.808591,14.15727 16.904796,11.38134 13.096208,-2.77594 23.51972,-7.21744 32.606882,-3.88632 9.087165,3.33113 20.847025,12.35293 26.326054,10.82615 4.56696,-1.27262 3.60813,-3.88631 3.60813,-3.88631 l -0.0703,-49.86829 H 25.324352 Z"
         id="path1282" />
      <flowRoot
         xml:space="preserve"
         id="flowRoot1290"
         style="font-style:normal;font-variant:normal;font-weight:normal;font-stretch:normal;font-size:13.33333302px;line-height:1.25;font-family:kenyan;-inkscape-font-specification:kenyan;letter-spacing:0px;word-spacing:0px;fill:#000000;fill-opacity:1;stroke:none"
         transform="matrix(0.26458333,0,0,0.26458333,-25.469909,108.05318)"><flowRegion
           id="flowRegion1286"><rect
             id="rect1284"
             width="298.82166"
             height="66.927498"
             x="192.85715"
             y="160" /></flowRegion><flowPara
           id="flowPara1288"
           style="font-style:normal;font-variant:normal;font-weight:bold;font-stretch:normal;font-size:24px;font-family:Provicali;-inkscape-font-specification:'Provicali Bold';text-align:center;text-anchor:middle;fill:#f9f9f9;fill-opacity:1">LG TECH</flowPara></flowRoot>      <g
         id="g1294"
         transform="matrix(0.88731553,0,0,0.88731553,-11.470733,19.353288)">
        <path
           style="fill:#ffffff;fill-opacity:1;stroke-width:0.03946378"
           d="m 85.68998,184.22193 c -1.120849,-0.0676 -2.636025,-0.34452 -3.492545,-0.63823 -0.983518,-0.33727 -2.257835,-0.94022 -2.950597,-1.39609 -0.639281,-0.42067 -1.34114,-0.974 -1.918054,-1.51214 -0.644427,-0.60111 -0.719722,-0.68122 -1.167445,-1.24199 -1.339468,-1.67766 -2.259945,-3.63075 -2.683416,-5.69373 -0.186526,-0.90869 -0.21909,-1.29666 -0.217707,-2.59366 0.0014,-1.17081 0.0077,-1.28213 0.111546,-1.914 0.331884,-2.02017 1.03921,-3.81268 2.149003,-5.446 0.693815,-1.02112 1.576356,-1.95319 2.690829,-2.84188 3.045527,-2.42849 7.123574,-3.34928 10.916601,-2.46486 0.370117,0.0863 1.375265,0.37072 1.524607,0.4314 0.0487,0.0198 0.230614,0.0891 0.404253,0.15413 0.806532,0.30183 1.717671,0.76816 2.427022,1.24217 2.486291,1.66139 4.290239,4.04701 5.231837,6.91881 0.226757,0.6916 0.409752,1.546 0.535353,2.49953 0.07778,0.59054 0.06715,2.39704 -0.01766,2.99925 -0.329594,2.34056 -1.076848,4.26269 -2.350622,6.04645 -0.453656,0.63527 -0.756068,0.99392 -1.319235,1.56453 -0.647345,0.65591 -1.538768,1.39703 -2.201067,1.82997 -0.854359,0.55848 -2.257939,1.19836 -3.351433,1.5279 -1.376313,0.41478 -2.971737,0.60987 -4.321284,0.52844 z m 1.722361,-1.98766 c 1.242711,-0.12346 2.334387,-0.43139 3.644714,-1.02808 0.255473,-0.11634 1.068095,-0.5634 1.239544,-0.68194 2.270652,-1.56987 3.826334,-3.63091 4.561649,-6.04347 0.33219,-1.08991 0.456214,-1.86279 0.482254,-3.00526 0.02852,-1.25035 -0.05859,-2.0449 -0.345022,-3.14807 -0.227257,-0.87525 -0.707552,-1.93563 -1.377758,-3.04174 -0.529589,-0.87403 -0.796333,-1.21268 -1.539508,-1.95453 -1.741909,-1.73878 -3.626658,-2.67256 -6.336114,-3.13915 -0.744818,-0.12827 -2.238023,-0.11532 -3.137375,0.0272 -1.927925,0.30551 -3.687215,1.077 -5.209216,2.28435 -0.470268,0.37305 -1.494083,1.38185 -1.822256,1.79553 -1.244,1.56816 -2.014442,3.40901 -2.328831,5.56439 -0.06897,0.47281 -0.0684,2.16618 9.45e-4,2.66381 0.178445,1.28154 0.496671,2.32531 1.082111,3.54922 0.820392,1.71512 2.204189,3.27546 3.936288,4.43849 0.729796,0.49003 2.175637,1.13828 3.04014,1.36307 0.517849,0.13465 1.212919,0.26398 1.813906,0.33751 0.513741,0.0629 1.748597,0.0729 2.294581,0.0186 z m -6.809531,-4.2945 c -0.01138,-0.0185 -0.0574,-0.27151 -0.102233,-0.56235 -0.04485,-0.29085 -0.12434,-0.7952 -0.176703,-1.12077 -0.05236,-0.32558 -0.167766,-1.05369 -0.25645,-1.61801 -0.08868,-0.56434 -0.188765,-1.19478 -0.2224,-1.40097 -0.03361,-0.2062 -0.08644,-0.56138 -0.117339,-0.78928 -0.03092,-0.2279 -0.07403,-0.50316 -0.09583,-0.61169 -0.02181,-0.10853 -0.06529,-0.37955 -0.09664,-0.60227 -0.03134,-0.22272 -0.07495,-0.50687 -0.0969,-0.63143 -0.02195,-0.12455 -0.09616,-0.58271 -0.164907,-1.01813 l -0.124991,-0.79166 0.08245,-0.1864 c 0.138446,-0.31298 0.04617,-0.30211 2.566503,-0.30211 h 2.207087 l 0.02413,0.60182 c 0.01327,0.331 0.04253,1.61407 0.06496,2.85126 0.02242,1.23718 0.0576,2.96866 0.07812,3.84771 0.02053,0.87906 0.03753,1.77144 0.03786,1.98306 l 4.71e-4,0.38477 h -1.79327 c -0.986303,0 -1.802603,-0.0151 -1.814009,-0.0336 z m 2.143536,-1.75774 c 0.03045,-0.0367 0.04188,-0.21671 0.03441,-0.54262 l -0.01109,-0.48774 -0.490184,-0.0112 c -0.365642,-0.009 -0.498343,0.002 -0.522291,0.0394 -0.03842,0.0605 -0.04475,0.99289 -0.007,1.03062 0.01444,0.0144 0.234278,0.0263 0.488462,0.0263 0.346504,0 0.473553,-0.0137 0.507704,-0.0549 z m -0.0836,-2.05643 c 0.01737,-0.65612 0.0535,-0.61169 -0.497634,-0.61169 -0.308988,0 -0.480805,0.0159 -0.512279,0.0473 -0.05985,0.0599 -0.06466,0.83316 -0.0058,0.94304 0.03829,0.0716 0.07859,0.0766 0.522895,0.0665 l 0.481399,-0.0111 z m -1.040351,-1.18673 c 0.0786,-0.0786 0.09088,-0.87992 0.01463,-0.95615 -0.06531,-0.0653 -0.944964,-0.0653 -1.010271,0 -0.0497,0.0497 -0.06898,0.83696 -0.02341,0.95574 0.03517,0.0917 0.927374,0.0921 1.019014,4.5e-4 z m 1.223375,-1.65748 c 0.04838,-0.0484 0.06202,-0.15175 0.06202,-0.47034 0,-0.22458 -0.01081,-0.43641 -0.02394,-0.47074 -0.03569,-0.093 -0.981917,-0.093 -1.01761,0 -0.04018,0.10468 -0.02667,0.84537 0.0169,0.92676 0.03654,0.0683 0.08611,0.0764 0.470749,0.0764 0.33819,0 0.443123,-0.0132 0.491908,-0.062 z m -1.599049,-0.54536 c 0.03045,-0.0367 0.04188,-0.21672 0.03442,-0.54262 l -0.01109,-0.48776 -0.487749,-0.0111 c -0.325903,-0.008 -0.505961,0.003 -0.542628,0.0344 -0.07247,0.0602 -0.07902,0.94309 -0.0075,1.01458 0.0715,0.0715 0.954438,0.065 1.014585,-0.008 z m 7.950836,6.93144 c 0.01425,-0.12479 0.05164,-0.36898 0.08312,-0.54262 0.197332,-1.08875 0.301841,-1.87972 0.255714,-1.93531 -0.04008,-0.0483 -0.248813,-0.0576 -1.287328,-0.0576 -1.101084,0 -1.24223,0.007 -1.263804,0.0633 -0.01336,0.0348 0.04254,0.57201 0.124189,1.19378 0.08166,0.62176 0.157613,1.20595 0.168782,1.2982 l 0.0203,0.16772 h -0.65752 c -0.492252,0 -0.661038,-0.0124 -0.671505,-0.0493 -0.01648,-0.0582 -0.08341,-0.82415 -0.16119,-1.84493 -0.03059,-0.40155 -0.08371,-1.0231 -0.118033,-1.38123 -0.03432,-0.35814 -0.141274,-1.57461 -0.237662,-2.70328 -0.166548,-1.9501 -0.460893,-5.33682 -0.589934,-6.78777 -0.06973,-0.78401 -0.0759,-1.14086 -0.02148,-1.24254 0.05834,-0.109 0.283223,-0.17118 0.451258,-0.12479 0.112232,0.0309 1.969105,0.68415 3.219176,1.13236 0.141085,0.0506 0.380829,0.13612 0.532761,0.19011 1.698742,0.60352 2.401928,0.85933 2.494337,0.9074 0.243629,0.12674 0.405885,0.40793 0.40674,0.70488 4.43e-4,0.15028 -0.123769,0.99515 -0.35552,2.41842 -0.04239,0.26047 -0.122028,0.76659 -0.176925,1.12473 -0.0549,0.35813 -0.126262,0.8021 -0.158584,0.98659 -0.03234,0.18449 -0.08612,0.54678 -0.119549,0.80507 -0.03342,0.25831 -0.06899,0.48291 -0.07902,0.49913 -0.01001,0.0162 -0.03692,0.16894 -0.05976,0.33938 -0.02285,0.17043 -0.103512,0.70056 -0.179256,1.17808 -0.525544,3.31303 -0.608133,3.81556 -0.633928,3.8573 -0.01015,0.0164 -0.241849,0.0299 -0.51487,0.0299 h -0.496401 z m -0.817278,-3.29522 c 0.0559,-0.0885 0.06641,-0.89261 0.01251,-0.95754 -0.06292,-0.0758 -0.90403,-0.0855 -0.978254,-0.0113 -0.05073,0.0507 -0.06967,0.94323 -0.02106,0.99185 0.05079,0.0508 0.953461,0.0297 0.98678,-0.023 z m 1.188235,-2.52164 c 0.01431,-0.59339 0.02053,-0.58634 -0.517065,-0.58552 -0.220926,3e-4 -0.428324,0.0174 -0.460878,0.038 -0.04665,0.0295 -0.0592,0.12762 -0.0592,0.4631 0,0.23413 0.01298,0.45733 0.02884,0.49598 0.02583,0.0629 0.07964,0.0691 0.513029,0.0592 l 0.484199,-0.0111 z m -2.304203,-0.9248 c 0.01317,-0.0343 0.02394,-0.25505 0.02394,-0.49048 0,-0.5556 0.0033,-0.55227 -0.525714,-0.55147 -0.220926,2.9e-4 -0.428323,0.0174 -0.460883,0.038 -0.04728,0.0299 -0.05919,0.13326 -0.05919,0.51381 0,0.38052 0.0119,0.48396 0.05919,0.5139 0.03257,0.0206 0.257084,0.0377 0.498942,0.0381 0.364957,4.4e-4 0.443818,-0.01 0.463702,-0.0618 z m 1.999794,-1.20336 c 0.05491,-0.0868 0.04593,-0.9193 -0.01053,-0.97576 -0.03125,-0.0313 -0.198762,-0.0473 -0.491908,-0.0473 -0.399125,0 -0.448726,0.008 -0.485407,0.0763 -0.04627,0.0864 -0.05513,0.86662 -0.01067,0.93529 0.04419,0.0682 0.152018,0.0822 0.57488,0.0747 0.287093,-0.005 0.397285,-0.0216 0.423631,-0.0632 z m 1.804402,-2.28596 c 0.01714,-0.67884 0.05451,-0.63142 -0.497611,-0.63142 -0.308983,0 -0.4808,0.0159 -0.512273,0.0473 -0.06623,0.0662 -0.06523,0.94505 0.0014,1.01142 0.03432,0.0343 0.187466,0.0453 0.522895,0.0375 l 0.474404,-0.011 z m -1.829606,-0.10148 c 0.08479,-0.0848 0.09074,-0.89108 0.007,-0.9605 -0.03654,-0.0303 -0.211613,-0.0418 -0.522895,-0.0344 l -0.467969,0.0112 -0.01109,0.45966 c -0.01435,0.59419 -0.02153,0.58613 0.524108,0.58613 0.318958,0 0.422357,-0.0136 0.47075,-0.062 z m -2.01306,-0.47497 c 0.052,-0.0199 0.06242,-0.10103 0.06242,-0.4854 0,-0.30629 -0.01591,-0.47737 -0.04736,-0.5088 -0.05745,-0.0575 -0.850492,-0.0649 -0.939238,-0.009 -0.04707,0.0297 -0.05919,0.13111 -0.05919,0.49414 0,0.36302 0.01213,0.46439 0.05919,0.49413 0.06495,0.0411 0.824019,0.0531 0.924174,0.0147 z m 3.412076,11.01643 c -0.03011,-0.0301 0.12188,-1.01146 0.474045,-3.06025 0.04291,-0.24961 0.241703,-1.44832 0.441773,-2.66381 0.200071,-1.21548 0.375107,-2.22311 0.388967,-2.23919 0.01387,-0.0161 0.08664,-0.0112 0.161733,0.0109 0.07509,0.0221 0.722428,0.20071 1.438524,0.39695 0.716097,0.19624 1.357957,0.39139 1.426362,0.43366 0.147897,0.0914 0.251163,0.29045 0.251163,0.48411 0,0.077 -0.08168,0.37624 -0.181518,0.66492 -0.09983,0.28869 -0.276667,0.80902 -0.392964,1.1563 -0.216357,0.64607 -0.80538,2.36853 -1.331372,3.89328 -0.162134,0.47001 -0.30682,0.87402 -0.321517,0.8978 -0.02615,0.0423 -2.313644,0.0668 -2.355196,0.0253 z m 2.589649,-2.68534 v -0.51303 l -0.490186,-0.0112 c -0.365641,-0.009 -0.498342,0.002 -0.52229,0.0394 -0.03909,0.0616 -0.04438,0.95378 -0.0059,0.99228 0.0151,0.0151 0.250389,0.0225 0.522894,0.0164 l 0.495463,-0.011 z m 0.492743,-1.30165 c 0.07375,-0.0889 0.03989,-0.95798 -0.03923,-1.00802 -0.03238,-0.0205 -0.239621,-0.0375 -0.460548,-0.0378 -0.528929,-8.6e-4 -0.525714,-0.004 -0.525714,0.55189 0,0.55916 -0.0066,0.55249 0.550479,0.55249 0.328767,0 0.437577,-0.0134 0.475026,-0.0585 z m -0.39442,-1.95308 c 0.07916,-0.05 0.112996,-0.91916 0.03923,-1.00803 -0.03772,-0.0454 -0.148713,-0.0585 -0.49619,-0.0585 -0.543128,0 -0.529315,-0.0148 -0.529315,0.56682 0,0.53977 -0.0014,0.53836 0.525713,0.53757 0.220927,-3e-4 0.428174,-0.0174 0.460548,-0.0378 z m -13.456818,5.77287 c -0.141084,-0.0533 -0.358626,-0.13274 -0.483429,-0.17656 -0.124803,-0.0438 -0.226917,-0.0848 -0.226917,-0.091 0,-0.006 -0.168461,-0.71051 -0.374362,-1.56506 -0.205896,-0.85455 -0.420421,-1.74906 -0.476716,-1.98782 -0.343738,-1.45777 -0.393277,-1.66618 -0.568186,-2.39035 -0.190653,-0.78933 -0.141472,-1.31159 0.163267,-1.73379 0.668932,-0.92679 0.759038,-1.02033 0.907826,-0.94244 0.102733,0.0538 0.06369,-0.19387 1.019599,6.46754 0.107454,0.74883 0.212604,1.45918 0.233659,1.57856 0.08155,0.46228 0.12477,0.88007 0.09398,0.90831 -0.0177,0.0162 -0.147637,-0.0141 -0.288722,-0.0674 z m 5.248683,-0.065 c -0.227905,-0.0903 -0.436567,-0.17859 -0.463697,-0.19614 -0.03749,-0.0242 -0.04962,-0.29492 -0.05054,-1.12472 -4.72e-4,-0.60103 -0.01728,-1.61667 -0.03692,-2.25697 -0.01964,-0.6403 -0.05704,-2.25635 -0.08312,-3.59121 -0.02852,-1.45822 -0.06294,-2.44671 -0.08631,-2.47635 -0.0296,-0.0376 -0.328678,-0.0493 -1.252601,-0.0493 -0.924263,0 -1.222833,-0.0118 -1.251955,-0.0493 -0.04145,-0.0534 -0.24767,-1.35408 -0.24767,-1.562 0,-0.17944 0.130264,-0.52828 0.261553,-0.70041 0.106146,-0.13916 0.49188,-0.44455 1.528474,-1.2101 0.398498,-0.2943 0.490652,-0.34562 0.620643,-0.34562 0.116093,0 0.167015,0.0219 0.212599,0.0915 0.06837,0.10436 0.137403,0.75269 0.454529,4.26927 0.04112,0.45581 0.102738,1.13951 0.136968,1.51936 0.03423,0.37983 0.08822,0.93035 0.119974,1.22337 0.03177,0.29302 0.07626,0.80802 0.09891,1.14445 0.02266,0.33643 0.05773,0.72712 0.07797,0.8682 0.02025,0.14108 0.05575,0.49626 0.07892,0.78928 0.04046,0.51195 0.112047,1.28708 0.275154,2.97951 0.04183,0.4341 0.06379,0.80102 0.04878,0.81537 -0.01501,0.0144 -0.213751,-0.0478 -0.441655,-0.13812 z"
           id="path1292" />
      </g>
      <flowRoot
         xml:space="preserve"
         id="flowRoot1302"
         style="font-style:normal;font-variant:normal;font-weight:normal;font-stretch:normal;font-size:13.33333302px;line-height:1.25;font-family:'Source Code Pro';-inkscape-font-specification:'Source Code Pro';letter-spacing:0px;word-spacing:0px;fill:#000000;fill-opacity:1;stroke:none"><flowRegion
           id="flowRegion1298"
           style="font-style:normal;font-variant:normal;font-weight:normal;font-stretch:normal;font-family:'Source Code Pro';-inkscape-font-specification:'Source Code Pro'"><rect
             id="rect1296"
             width="300.01532"
             height="61.619305"
             x="93.944183"
             y="366.44659"
             style="font-style:normal;font-variant:normal;font-weight:normal;font-stretch:normal;font-family:'Source Code Pro';-inkscape-font-specification:'Source Code Pro'" /></flowRegion><flowPara
           id="flowPara1300"></flowPara></flowRoot>      <flowRoot
         xml:space="preserve"
         id="flowRoot1310"
         style="font-style:normal;font-variant:normal;font-weight:normal;font-stretch:normal;font-size:13.33333302px;line-height:1.25;font-family:kenyan;-inkscape-font-specification:kenyan;letter-spacing:0px;word-spacing:0px;fill:#494949;fill-opacity:1;stroke:none"
         transform="matrix(0.26458333,0,0,0.26458333,22.341639,106.49995)"><flowRegion
           id="flowRegion1306"
           style="fill:#494949;fill-opacity:1"><rect
             id="rect1304"
             width="306.07623"
             height="62.629459"
             x="92.934036"
             y="369.47708"
             style="fill:#494949;fill-opacity:1" /></flowRegion><flowPara
           id="flowPara1308"
           style="font-style:normal;font-variant:normal;font-weight:bold;font-stretch:normal;font-size:16px;font-family:kenyan;-inkscape-font-specification:'kenyan Bold';fill:#494949;fill-opacity:1">Air Conditioner</flowPara></flowRoot>      <rect
         style="opacity:1;fill:#3ff4c4;fill-opacity:1;stroke:none;stroke-width:0.64077944;stroke-linejoin:round;stroke-miterlimit:4;stroke-dasharray:none;stroke-opacity:1;paint-order:markers fill stroke"
         id="rect1312"
         width="49.136906"
         height="9.0895128"
         x="40.443451"
         y="244.69016"
         ry="1.0604429" />
      <flowRoot
         xml:space="preserve"
         id="flowRoot1320"
         style="font-style:normal;font-variant:normal;font-weight:normal;font-stretch:normal;font-size:13.33333302px;line-height:1.25;font-family:kenyan;-inkscape-font-specification:kenyan;letter-spacing:0px;word-spacing:0px;fill:#f9f9f9;fill-opacity:1;stroke:none"
         transform="matrix(0.26458333,0,0,0.25970034,16.920783,110.70962)"><flowRegion
           id="flowRegion1316"
           style="fill:#f9f9f9;fill-opacity:1"><rect
             id="rect1314"
             width="187.14285"
             height="44.285713"
             x="151.42857"
             y="525.71429"
             style="fill:#f9f9f9;fill-opacity:1" /></flowRegion><flowPara
           id="flowPara1318"
           style="font-style:normal;font-variant:normal;font-weight:bold;font-stretch:normal;font-size:12px;font-family:Provicali;-inkscape-font-specification:'Provicali Bold';fill:#f9f9f9;fill-opacity:1">PILIH JASA</flowPara></flowRoot>      <rect
         style="opacity:1;fill:#d3d3d3;fill-opacity:1;stroke:none;stroke-width:0.27553034;stroke-linejoin:round;stroke-miterlimit:4;stroke-dasharray:none;stroke-opacity:1;paint-order:markers fill stroke"
         id="rect1322"
         width="49.041656"
         height="0.26458332"
         x="40.557892"
         y="209.8728"
         ry="0.13229166" />
      <flowRoot
         transform="matrix(0.26458333,0,0,0.26458333,1.47418,118.6708)"
         style="font-style:normal;font-variant:normal;font-weight:normal;font-stretch:normal;font-size:13.33333302px;line-height:1.25;font-family:kenyan;-inkscape-font-specification:kenyan;letter-spacing:0px;word-spacing:0px;fill:#b0f7e4;fill-opacity:1;stroke:none;"
         id="flowRoot1330"
         xml:space="preserve"><flowRegion
           style="fill:#b0f7e4;fill-opacity:1;"
           id="flowRegion1326"><rect
             style="fill:#b0f7e4;fill-opacity:1;"
             y="404.8324"
             x="164.65486"
             height="58.466309"
             width="151.33217"
             id="rect1324" /></flowRegion><flowPara
           style="font-style:normal;font-variant:normal;font-weight:bold;font-stretch:normal;font-size:26.66666794px;font-family:kenyan;-inkscape-font-specification:'kenyan Bold';fill:#b0f7e4;fill-opacity:1;"
           id="flowPara1328">2.000.000</flowPara></flowRoot>      <g
         id="g1352"
         transform="translate(-0.52916667)">
        <flowRoot
           xml:space="preserve"
           id="flowRoot1338"
           style="font-style:normal;font-variant:normal;font-weight:normal;font-stretch:normal;font-size:13.33333302px;line-height:1.25;font-family:kenyan;-inkscape-font-specification:kenyan;letter-spacing:0px;word-spacing:-0.08px;fill:#d5d5d5;fill-opacity:1;stroke:none"
           transform="matrix(0.26458333,0,0,0.26458333,22.341636,113.7447)"><flowRegion
             id="flowRegion1334"
             style="word-spacing:-0.08px;fill:#d5d5d5;fill-opacity:1"><rect
               id="rect1332"
               width="306.07623"
               height="62.629459"
               x="92.934036"
               y="369.47708"
               style="word-spacing:-0.08px;fill:#d5d5d5;fill-opacity:1" /></flowRegion><flowPara
             id="flowPara1336"
             style="font-style:normal;font-variant:normal;font-weight:bold;font-stretch:normal;font-size:10.66666698px;font-family:'Nimbus Sans';-inkscape-font-specification:'Nimbus Sans Bold';letter-spacing:0.14px;word-spacing:-1px;fill:#d5d5d5;fill-opacity:1">Instalasi</flowPara></flowRoot>        <g
           style="fill:#d5d5d5;fill-opacity:1"
           transform="matrix(0.43863374,0,0,0.43863374,-3.4964627,94.843314)"
           id="g1342">
          <path
             id="path1340"
             d="m 101.62021,275.30375 c -0.15785,-0.0267 -0.29518,-0.12871 -0.36516,-0.27121 l -0.045,-0.0917 -0.008,-1.26634 -0.008,-1.26633 -0.0701,-0.0387 c -0.0995,-0.0549 -0.17739,-0.13843 -0.22642,-0.24287 l -0.0423,-0.0902 v -2.03436 -2.03436 l 0.0465,-0.0919 c 0.0558,-0.11038 0.17551,-0.2225 0.28033,-0.26264 0.0706,-0.0271 0.16682,-0.03 1.24638,-0.0378 l 1.16983,-0.008 0.009,-0.4276 c 0.01,-0.46329 0.0176,-0.51019 0.10984,-0.66987 0.10534,-0.18244 0.25561,-0.30495 0.48216,-0.39309 l 0.10878,-0.0423 h 1.69424 c 1.61334,0 1.69847,0.001 1.78298,0.0302 0.29674,0.10102 0.50283,0.30179 0.59009,0.57488 0.0227,0.0712 0.0302,0.17178 0.0378,0.50827 l 0.009,0.41953 1.16983,0.008 c 1.07546,0.008 1.17594,0.0108 1.24558,0.0375 0.1066,0.0409 0.21557,0.143 0.27603,0.25866 l 0.0516,0.0987 v 2.03308 2.03309 l -0.0451,0.0919 c -0.0507,0.10323 -0.13326,0.19131 -0.22919,0.24449 l -0.0646,0.0358 -0.008,1.26613 c -0.007,1.16664 -0.0103,1.27111 -0.0366,1.32944 -0.0717,0.15879 -0.21135,0.26566 -0.38988,0.29835 -0.11236,0.0206 -8.65068,0.0218 -8.77205,10e-4 z m 8.78033,-0.35007 c 0.0985,-0.0582 0.0956,-0.0189 0.0953,-1.28996 -1.3e-4,-0.63763 -0.006,-1.1685 -0.0132,-1.17972 -0.0101,-0.016 -0.41975,0.0355 -1.88996,0.23765 -1.03236,0.14192 -1.88141,0.26241 -1.88678,0.26775 -0.005,0.005 -0.0134,0.138 -0.0178,0.29482 -0.007,0.25591 -0.0119,0.29288 -0.0454,0.36088 -0.0476,0.0967 -0.14523,0.19429 -0.24192,0.24191 -0.0713,0.0351 -0.0942,0.0373 -0.3904,0.0373 -0.36022,0 -0.40992,-0.0128 -0.52997,-0.1365 -0.12277,-0.12652 -0.13857,-0.18038 -0.14772,-0.50361 -0.004,-0.15682 -0.0125,-0.28949 -0.0178,-0.29482 -0.005,-0.005 -0.85442,-0.12583 -1.88678,-0.26775 -1.47021,-0.20211 -1.87982,-0.25362 -1.88996,-0.23765 -0.0212,0.0335 -0.0166,2.32188 0.005,2.38337 0.01,0.0288 0.0409,0.0661 0.0686,0.083 0.0491,0.03 0.15333,0.0307 4.39638,0.0308 4.06756,6e-5 4.34905,-0.002 4.39266,-0.0275 z m -4.09595,-1.4048 0.0527,-0.0527 0.005,-0.54429 c 0.005,-0.58492 -3.7e-4,-0.64025 -0.0721,-0.6967 -0.0382,-0.03 -0.0645,-0.0331 -0.27981,-0.0331 -0.21532,0 -0.24164,0.003 -0.2798,0.0331 -0.0718,0.0564 -0.0775,0.11183 -0.0721,0.69572 l 0.005,0.54329 0.0403,0.0434 c 0.0615,0.0661 0.0877,0.0716 0.32648,0.0677 l 0.2216,-0.004 z m -0.97103,-1.10903 c 0.008,-0.16687 0.0148,-0.20492 0.0512,-0.27533 0.0438,-0.0847 0.13851,-0.18157 0.21745,-0.2224 0.0876,-0.0453 0.23761,-0.0629 0.4675,-0.0549 0.25928,0.009 0.33892,0.0316 0.44716,0.12686 0.0406,0.0357 0.0925,0.10458 0.11781,0.15611 0.0397,0.0811 0.0459,0.11432 0.0511,0.27492 0.004,0.1289 0.0119,0.18505 0.0265,0.19063 0.0243,0.009 3.89317,-0.5183 3.9803,-0.54281 0.0326,-0.009 0.078,-0.0389 0.10085,-0.066 l 0.0415,-0.0494 v -1.96004 c 0,-2.12219 0.004,-2.01652 -0.0842,-2.07847 -0.0324,-0.0227 -0.50377,-0.0252 -4.7437,-0.0252 h -4.70775 l -0.0527,0.0471 -0.0527,0.0471 -0.004,1.98047 c -0.005,2.16051 -0.0104,2.01935 0.0846,2.0816 0.0284,0.0186 0.59274,0.10272 1.99656,0.29752 1.0763,0.14935 1.9787,0.27028 2.00532,0.26873 l 0.0484,-0.003 z m -1.03356,-5.24778 0.008,-0.37482 0.0447,-0.0447 0.0447,-0.0447 h 1.61282 1.61283 l 0.0447,0.0447 0.0447,0.0447 0.008,0.37482 0.008,0.37483 0.17345,0.005 0.17346,0.005 v -0.39527 c 0,-0.35791 -0.003,-0.40354 -0.0328,-0.48295 -0.0438,-0.11715 -0.14107,-0.22416 -0.25417,-0.2797 l -0.0922,-0.0453 h -1.68618 -1.68617 l -0.0746,0.0345 c -0.10851,0.0502 -0.19978,0.14009 -0.25561,0.25181 l -0.049,0.098 v 0.40943 0.40943 l 0.17346,-0.005 0.17345,-0.005 z m 3.08997,0.12473 v -0.25011 h -1.3796 -1.37959 l -0.005,0.23323 c -0.002,0.12827 -8.7e-4,0.24267 0.004,0.25422 0.007,0.0171 0.26611,0.0202 1.38409,0.0169 l 1.37603,-0.004 z"
             style="fill:#d5d5d5;fill-opacity:1;stroke-width:0.0161356" />
        </g>
        <flowRoot
           transform="matrix(0.26458333,0,0,0.26458333,57.26664,113.7447)"
           style="font-style:normal;font-variant:normal;font-weight:normal;font-stretch:normal;font-size:13.33333302px;line-height:1.25;font-family:kenyan;-inkscape-font-specification:kenyan;letter-spacing:0px;word-spacing:-0.08px;fill:#d5d5d5;fill-opacity:1;stroke:none"
           id="flowRoot1350"
           xml:space="preserve"><flowRegion
             style="word-spacing:-0.08px;fill:#d5d5d5;fill-opacity:1"
             id="flowRegion1346"><rect
               style="word-spacing:-0.08px;fill:#d5d5d5;fill-opacity:1"
               y="369.47708"
               x="92.934036"
               height="62.629459"
               width="306.07623"
               id="rect1344" /></flowRegion><flowPara
             style="font-style:normal;font-variant:normal;font-weight:bold;font-stretch:normal;font-size:10.66666698px;font-family:'Nimbus Sans';-inkscape-font-specification:'Nimbus Sans Bold';letter-spacing:0.14px;word-spacing:-1px;fill:#d5d5d5;fill-opacity:1"
             id="flowPara1348">70Km</flowPara></flowRoot>      </g>
      <g
         id="g1356"
         transform="matrix(0.11244976,0,0,0.11244976,80.883378,186.65874)"
         style="fill:#d5d5d5;fill-opacity:1">
        <path
           style="fill:#d5d5d5;fill-opacity:1;stroke-width:0.26458332"
           d="m -30.436816,248.91195 c -6.442967,-10.37458 -7.131179,-11.78657 -7.409386,-15.20166 -0.468096,-5.74605 3.302351,-11.58958 8.760933,-13.57789 0.727604,-0.26503 1.48303,-0.60439 1.678724,-0.75411 0.490594,-0.37536 5.630403,-0.37053 6.417116,0.006 0.349476,0.16728 1.528379,0.71632 2.619785,1.22009 3.499644,1.61536 6.066801,4.55109 7.199892,8.2336 0.76158,2.47511 0.771586,5.96328 0.02368,8.25405 -0.316695,0.97 -2.819471,5.43033 -6.309656,11.24479 -3.181615,5.30039 -5.750209,9.6833 -5.707985,9.73979 0.108796,0.14556 -0.570643,0.54985 -0.932199,0.5547 -0.166273,0.002 -3.019678,-4.3715 -6.340899,-9.71939 z m 11.795172,-2.21155 c 2.802116,-4.67248 5.321481,-9.14048 5.598587,-9.9289 1.512874,-4.3044 0.408908,-8.95966 -2.909972,-12.2709 -6.481944,-6.46703 -17.373726,-3.36639 -19.768045,5.6275 -0.476602,1.79029 -0.466169,3.35151 0.03666,5.48496 0.465059,1.97321 0.347477,1.7601 6.279333,11.38066 4.410247,7.15275 5.111673,8.20209 5.482652,8.20209 0.102317,0 2.478672,-3.82294 5.280788,-8.49541 z m -8.341671,-7.74305 c -1.498786,-0.69792 -3.123524,-2.42365 -3.57784,-3.80024 -0.165489,-0.50144 -0.25529,-1.71872 -0.199556,-2.70506 0.133351,-2.35998 1.120361,-4.03174 3.071073,-5.20165 2.399902,-1.4393 4.598421,-1.4393 6.998322,0 1.992317,1.19486 2.947986,2.84683 3.072419,5.31096 0.07757,1.53613 -0.01469,2.12546 -0.491591,3.14001 -1.577415,3.35581 -5.537598,4.80904 -8.872827,3.25598 z m 5.633047,-2.18549 c 3.442416,-2.75038 2.11816,-7.84969 -2.266234,-8.72657 -1.662062,-0.33241 -3.963119,0.88952 -4.813298,2.55601 -1.755253,3.44058 0.743088,7.30503 4.56599,7.06271 1.203315,-0.0763 1.723448,-0.26089 2.513542,-0.89215 z"
           id="path1354" />
      </g>
    </g>
  </g>
</svg>
